# Tiled2Unity generated file. Do not modify by hand.
# Wavefront file for '0Outside-House-bf_mesh_0004.obj'

# Vertices (Count = 88)
v -10 -1 0
v -11 -1 0
v -11 0 0
v -10 0 0
v -11 -1 0
v -12 -1 0
v -12 0 0
v -11 0 0
v -12 -1 0
v -13 -1 0
v -13 0 0
v -12 0 0
v -13 -1 0
v -14 -1 0
v -14 0 0
v -13 0 0
v -14 -1 0
v -15 -1 0
v -15 0 0
v -14 0 0
v -15 -1 0
v -16 -1 0
v -16 0 0
v -15 0 0
v -16 -1 0
v -17 -1 0
v -17 0 0
v -16 0 0
v -17 -1 0
v -18 -1 0
v -18 0 0
v -17 0 0
v -18 -1 0
v -19 -1 0
v -19 0 0
v -18 0 0
v -19 -1 0
v -20 -1 0
v -20 0 0
v -19 0 0
v -20 -1 0
v -21 -1 0
v -21 0 0
v -20 0 0
v -29 -1 0
v -30 -1 0
v -30 0 0
v -29 0 0
v -30 -1 0
v -31 -1 0
v -31 0 0
v -30 0 0
v -31 -1 0
v -32 -1 0
v -32 0 0
v -31 0 0
v -32 -1 0
v -33 -1 0
v -33 0 0
v -32 0 0
v -33 -1 0
v -34 -1 0
v -34 0 0
v -33 0 0
v -34 -1 0
v -35 -1 0
v -35 0 0
v -34 0 0
v -35 -1 0
v -36 -1 0
v -36 0 0
v -35 0 0
v -36 -1 0
v -37 -1 0
v -37 0 0
v -36 0 0
v -37 -1 0
v -38 -1 0
v -38 0 0
v -37 0 0
v -38 -1 0
v -39 -1 0
v -39 0 0
v -38 0 0
v -39 -1 0
v -40 -1 0
v -40 0 0
v -39 0 0

# Texture cooridinates (Count = 4)
vt 0.5384616 0.875
vt 0.5384616 1
vt 0.4615385 1
vt 0.4615385 0.875

# Normal
vn 0 0 -1

# Mesh description
g 0Outside-House-bf_mesh_0004

# Faces
f 1/1/1 2/2/1 3/3/1 4/4/1
f 5/1/1 6/2/1 7/3/1 8/4/1
f 9/1/1 10/2/1 11/3/1 12/4/1
f 13/1/1 14/2/1 15/3/1 16/4/1
f 17/1/1 18/2/1 19/3/1 20/4/1
f 21/1/1 22/2/1 23/3/1 24/4/1
f 25/1/1 26/2/1 27/3/1 28/4/1
f 29/1/1 30/2/1 31/3/1 32/4/1
f 33/1/1 34/2/1 35/3/1 36/4/1
f 37/1/1 38/2/1 39/3/1 40/4/1
f 41/1/1 42/2/1 43/3/1 44/4/1
f 45/1/1 46/2/1 47/3/1 48/4/1
f 49/1/1 50/2/1 51/3/1 52/4/1
f 53/1/1 54/2/1 55/3/1 56/4/1
f 57/1/1 58/2/1 59/3/1 60/4/1
f 61/1/1 62/2/1 63/3/1 64/4/1
f 65/1/1 66/2/1 67/3/1 68/4/1
f 69/1/1 70/2/1 71/3/1 72/4/1
f 73/1/1 74/2/1 75/3/1 76/4/1
f 77/1/1 78/2/1 79/3/1 80/4/1
f 81/1/1 82/2/1 83/3/1 84/4/1
f 85/1/1 86/2/1 87/3/1 88/4/1

