# Tiled2Unity generated file. Do not modify by hand.
# Wavefront file for '0Outside-House-bf_mesh_0005.obj'

# Vertices (Count = 160)
v -36 -6 0
v -37 -6 0
v -37 -5 0
v -36 -5 0
v -5 -10 0
v -6 -10 0
v -6 -9 0
v -5 -9 0
v -6 -10 0
v -7 -10 0
v -7 -9 0
v -6 -9 0
v -5 -11 0
v -6 -11 0
v -6 -10 0
v -5 -10 0
v -6 -11 0
v -7 -11 0
v -7 -10 0
v -6 -10 0
v -5 -12 0
v -6 -12 0
v -6 -11 0
v -5 -11 0
v -6 -12 0
v -7 -12 0
v -7 -11 0
v -6 -11 0
v -5 -13 0
v -6 -13 0
v -6 -12 0
v -5 -12 0
v -6 -13 0
v -7 -13 0
v -7 -12 0
v -6 -12 0
v -5 -14 0
v -6 -14 0
v -6 -13 0
v -5 -13 0
v -6 -14 0
v -7 -14 0
v -7 -13 0
v -6 -13 0
v -5 -15 0
v -6 -15 0
v -6 -14 0
v -5 -14 0
v -6 -15 0
v -7 -15 0
v -7 -14 0
v -6 -14 0
v -5 -16 0
v -6 -16 0
v -6 -15 0
v -5 -15 0
v -6 -16 0
v -7 -16 0
v -7 -15 0
v -6 -15 0
v -5 -17 0
v -6 -17 0
v -6 -16 0
v -5 -16 0
v -6 -17 0
v -7 -17 0
v -7 -16 0
v -6 -16 0
v -7 -17 0
v -8 -17 0
v -8 -16 0
v -7 -16 0
v -8 -17 0
v -9 -17 0
v -9 -16 0
v -8 -16 0
v -9 -17 0
v -10 -17 0
v -10 -16 0
v -9 -16 0
v -10 -17 0
v -11 -17 0
v -11 -16 0
v -10 -16 0
v -34 -17 0
v -35 -17 0
v -35 -16 0
v -34 -16 0
v -35 -17 0
v -36 -17 0
v -36 -16 0
v -35 -16 0
v -36 -17 0
v -37 -17 0
v -37 -16 0
v -36 -16 0
v -37 -17 0
v -38 -17 0
v -38 -16 0
v -37 -16 0
v -38 -17 0
v -39 -17 0
v -39 -16 0
v -38 -16 0
v -39 -17 0
v -40 -17 0
v -40 -16 0
v -39 -16 0
v -5 -18 0
v -6 -18 0
v -6 -17 0
v -5 -17 0
v -6 -18 0
v -7 -18 0
v -7 -17 0
v -6 -17 0
v -7 -18 0
v -8 -18 0
v -8 -17 0
v -7 -17 0
v -8 -18 0
v -9 -18 0
v -9 -17 0
v -8 -17 0
v -9 -18 0
v -10 -18 0
v -10 -17 0
v -9 -17 0
v -10 -18 0
v -11 -18 0
v -11 -17 0
v -10 -17 0
v -11 -18 0
v -12 -18 0
v -12 -17 0
v -11 -17 0
v -34 -18 0
v -35 -18 0
v -35 -17 0
v -34 -17 0
v -35 -18 0
v -36 -18 0
v -36 -17 0
v -35 -17 0
v -36 -18 0
v -37 -18 0
v -37 -17 0
v -36 -17 0
v -37 -18 0
v -38 -18 0
v -38 -17 0
v -37 -17 0
v -38 -18 0
v -39 -18 0
v -39 -17 0
v -38 -17 0
v -39 -18 0
v -40 -18 0
v -40 -17 0
v -39 -17 0

# Texture cooridinates (Count = 26)
vt 0.6666667 0.2857143
vt 0.7777778 0.2857143
vt 0.7777778 0.4285714
vt 0.6666667 0.4285714
vt 0.4444444 0.8571429
vt 0.5555556 0.8571429
vt 0.5555556 1
vt 0.4444444 1
vt 0.3333333 0.4285714
vt 0.4444444 0.4285714
vt 0.4444444 0.5714285
vt 0.3333333 0.5714285
vt 0.5555556 0.4285714
vt 0.6666667 0.5714285
vt 0.5555556 0.5714285
vt 0.3333333 0
vt 0.4444444 0
vt 0.4444444 0.1428571
vt 0.3333333 0.1428571
vt 0.5555556 0
vt 0.6666667 0
vt 0.6666667 0.1428571
vt 0.5555556 0.1428571
vt 0.4444444 0.2857143
vt 0.5555556 0.2857143
vt 0.3333333 0.2857143

# Normal
vn 0 0 -1

# Mesh description
g 0Outside-House-bf_mesh_0005

# Faces
f 1/1/1 2/2/1 3/3/1 4/4/1
f 5/5/1 6/6/1 7/7/1 8/8/1
f 9/5/1 10/6/1 11/7/1 12/8/1
f 13/9/1 14/10/1 15/11/1 16/12/1
f 17/13/1 18/4/1 19/14/1 20/15/1
f 21/16/1 22/17/1 23/18/1 24/19/1
f 25/20/1 26/21/1 27/22/1 28/23/1
f 29/16/1 30/17/1 31/18/1 32/19/1
f 33/20/1 34/21/1 35/22/1 36/23/1
f 37/16/1 38/17/1 39/18/1 40/19/1
f 41/20/1 42/21/1 43/22/1 44/23/1
f 45/16/1 46/17/1 47/18/1 48/19/1
f 49/20/1 50/21/1 51/22/1 52/23/1
f 53/16/1 54/17/1 55/18/1 56/19/1
f 57/20/1 58/21/1 59/22/1 60/23/1
f 61/16/1 62/17/1 63/18/1 64/19/1
f 65/17/1 66/20/1 67/23/1 68/18/1
f 69/24/1 70/25/1 71/13/1 72/10/1
f 73/24/1 74/25/1 75/13/1 76/10/1
f 77/24/1 78/25/1 79/13/1 80/10/1
f 81/25/1 82/1/1 83/4/1 84/13/1
f 85/24/1 86/25/1 87/13/1 88/10/1
f 89/24/1 90/25/1 91/13/1 92/10/1
f 93/24/1 94/25/1 95/13/1 96/10/1
f 97/24/1 98/25/1 99/13/1 100/10/1
f 101/24/1 102/25/1 103/13/1 104/10/1
f 105/24/1 106/25/1 107/13/1 108/10/1
f 109/19/1 110/18/1 111/24/1 112/26/1
f 113/18/1 114/23/1 115/25/1 116/24/1
f 117/18/1 118/23/1 119/25/1 120/24/1
f 121/18/1 122/23/1 123/25/1 124/24/1
f 125/18/1 126/23/1 127/25/1 128/24/1
f 129/18/1 130/23/1 131/25/1 132/24/1
f 133/23/1 134/22/1 135/1/1 136/25/1
f 137/18/1 138/23/1 139/25/1 140/24/1
f 141/18/1 142/23/1 143/25/1 144/24/1
f 145/18/1 146/23/1 147/25/1 148/24/1
f 149/18/1 150/23/1 151/25/1 152/24/1
f 153/18/1 154/23/1 155/25/1 156/24/1
f 157/18/1 158/23/1 159/25/1 160/24/1

