# Tiled2Unity generated file. Do not modify by hand.
# Wavefront file for 'Fixed-Monopolistic_mesh_0002.obj'

# Vertices (Count = 108)
v 0 -8 0
v -1 -8 0
v -1 -7 0
v 0 -7 0
v -1 -8 0
v -2 -8 0
v -2 -7 0
v -1 -7 0
v -2 -8 0
v -3 -8 0
v -3 -7 0
v -2 -7 0
v -3 -8 0
v -4 -8 0
v -4 -7 0
v -3 -7 0
v -4 -8 0
v -5 -8 0
v -5 -7 0
v -4 -7 0
v -5 -8 0
v -6 -8 0
v -6 -7 0
v -5 -7 0
v -6 -8 0
v -7 -8 0
v -7 -7 0
v -6 -7 0
v -7 -8 0
v -8 -8 0
v -8 -7 0
v -7 -7 0
v -8 -8 0
v -9 -8 0
v -9 -7 0
v -8 -7 0
v 0 -9 0
v -1 -9 0
v -1 -8 0
v 0 -8 0
v -1 -9 0
v -2 -9 0
v -2 -8 0
v -1 -8 0
v -2 -9 0
v -3 -9 0
v -3 -8 0
v -2 -8 0
v -3 -9 0
v -4 -9 0
v -4 -8 0
v -3 -8 0
v -4 -9 0
v -5 -9 0
v -5 -8 0
v -4 -8 0
v -5 -9 0
v -6 -9 0
v -6 -8 0
v -5 -8 0
v -6 -9 0
v -7 -9 0
v -7 -8 0
v -6 -8 0
v -7 -9 0
v -8 -9 0
v -8 -8 0
v -7 -8 0
v -8 -9 0
v -9 -9 0
v -9 -8 0
v -8 -8 0
v 0 -10 0
v -1 -10 0
v -1 -9 0
v 0 -9 0
v -1 -10 0
v -2 -10 0
v -2 -9 0
v -1 -9 0
v -2 -10 0
v -3 -10 0
v -3 -9 0
v -2 -9 0
v -3 -10 0
v -4 -10 0
v -4 -9 0
v -3 -9 0
v -4 -10 0
v -5 -10 0
v -5 -9 0
v -4 -9 0
v -5 -10 0
v -6 -10 0
v -6 -9 0
v -5 -9 0
v -6 -10 0
v -7 -10 0
v -7 -9 0
v -6 -9 0
v -7 -10 0
v -8 -10 0
v -8 -9 0
v -7 -9 0
v -8 -10 0
v -9 -10 0
v -9 -9 0
v -8 -9 0

# Texture cooridinates (Count = 17)
vt 0.3333333 0.5
vt 0.6666667 0.5
vt 0.6666667 0.6666666
vt 0.3333333 0.6666666
vt 1 0.5
vt 1 0.6666666
vt 0 0
vt 0.3333333 0
vt 0.3333333 0.1666667
vt 0 0.1666667
vt 0.6666667 0
vt 0.6666667 0.1666667
vt 1 0
vt 1 0.1666667
vt 0.3333333 0.3333333
vt 0.6666667 0.3333333
vt 1 0.3333333

# Normal
vn 0 0 -1

# Mesh description
g Fixed-Monopolistic_mesh_0002

# Faces
f 1/1/1 2/2/1 3/3/1 4/4/1
f 5/1/1 6/2/1 7/3/1 8/4/1
f 9/1/1 10/2/1 11/3/1 12/4/1
f 13/1/1 14/2/1 15/3/1 16/4/1
f 17/1/1 18/2/1 19/3/1 20/4/1
f 21/1/1 22/2/1 23/3/1 24/4/1
f 25/1/1 26/2/1 27/3/1 28/4/1
f 29/1/1 30/2/1 31/3/1 32/4/1
f 33/2/1 34/5/1 35/6/1 36/3/1
f 37/7/1 38/8/1 39/9/1 40/10/1
f 41/8/1 42/11/1 43/12/1 44/9/1
f 45/11/1 46/13/1 47/14/1 48/12/1
f 49/8/1 50/11/1 51/12/1 52/9/1
f 53/11/1 54/13/1 55/14/1 56/12/1
f 57/8/1 58/11/1 59/12/1 60/9/1
f 61/7/1 62/8/1 63/9/1 64/10/1
f 65/15/1 66/16/1 67/2/1 68/1/1
f 69/16/1 70/17/1 71/5/1 72/2/1
f 73/9/1 74/12/1 75/16/1 76/15/1
f 77/9/1 78/12/1 79/16/1 80/15/1
f 81/9/1 82/12/1 83/16/1 84/15/1
f 85/9/1 86/12/1 87/16/1 88/15/1
f 89/9/1 90/12/1 91/16/1 92/15/1
f 93/9/1 94/12/1 95/16/1 96/15/1
f 97/9/1 98/12/1 99/16/1 100/15/1
f 101/9/1 102/12/1 103/16/1 104/15/1
f 105/12/1 106/14/1 107/17/1 108/16/1

