# Tiled2Unity generated file. Do not modify by hand.
# Wavefront file for 'Try-3-Monopolistic_mesh_0002.obj'

# Vertices (Count = 676)
v 0 -1 0
v -1 -1 0
v -1 0 0
v 0 0 0
v -1 -1 0
v -2 -1 0
v -2 0 0
v -1 0 0
v -2 -1 0
v -3 -1 0
v -3 0 0
v -2 0 0
v -3 -1 0
v -4 -1 0
v -4 0 0
v -3 0 0
v -4 -1 0
v -5 -1 0
v -5 0 0
v -4 0 0
v -5 -1 0
v -6 -1 0
v -6 0 0
v -5 0 0
v -6 -1 0
v -7 -1 0
v -7 0 0
v -6 0 0
v -7 -1 0
v -8 -1 0
v -8 0 0
v -7 0 0
v -8 -1 0
v -9 -1 0
v -9 0 0
v -8 0 0
v -9 -1 0
v -10 -1 0
v -10 0 0
v -9 0 0
v -10 -1 0
v -11 -1 0
v -11 0 0
v -10 0 0
v -11 -1 0
v -12 -1 0
v -12 0 0
v -11 0 0
v -12 -1 0
v -13 -1 0
v -13 0 0
v -12 0 0
v -13 -1 0
v -14 -1 0
v -14 0 0
v -13 0 0
v -14 -1 0
v -15 -1 0
v -15 0 0
v -14 0 0
v -15 -1 0
v -16 -1 0
v -16 0 0
v -15 0 0
v -16 -1 0
v -17 -1 0
v -17 0 0
v -16 0 0
v -17 -1 0
v -18 -1 0
v -18 0 0
v -17 0 0
v -18 -1 0
v -19 -1 0
v -19 0 0
v -18 0 0
v -19 -1 0
v -20 -1 0
v -20 0 0
v -19 0 0
v 0 -2 0
v -1 -2 0
v -1 -1 0
v 0 -1 0
v -1 -2 0
v -2 -2 0
v -2 -1 0
v -1 -1 0
v -2 -2 0
v -3 -2 0
v -3 -1 0
v -2 -1 0
v -3 -2 0
v -4 -2 0
v -4 -1 0
v -3 -1 0
v -4 -2 0
v -5 -2 0
v -5 -1 0
v -4 -1 0
v -5 -2 0
v -6 -2 0
v -6 -1 0
v -5 -1 0
v -6 -2 0
v -7 -2 0
v -7 -1 0
v -6 -1 0
v -7 -2 0
v -8 -2 0
v -8 -1 0
v -7 -1 0
v -8 -2 0
v -9 -2 0
v -9 -1 0
v -8 -1 0
v -9 -2 0
v -10 -2 0
v -10 -1 0
v -9 -1 0
v -10 -2 0
v -11 -2 0
v -11 -1 0
v -10 -1 0
v -11 -2 0
v -12 -2 0
v -12 -1 0
v -11 -1 0
v -12 -2 0
v -13 -2 0
v -13 -1 0
v -12 -1 0
v -13 -2 0
v -14 -2 0
v -14 -1 0
v -13 -1 0
v -14 -2 0
v -15 -2 0
v -15 -1 0
v -14 -1 0
v -15 -2 0
v -16 -2 0
v -16 -1 0
v -15 -1 0
v -16 -2 0
v -17 -2 0
v -17 -1 0
v -16 -1 0
v -17 -2 0
v -18 -2 0
v -18 -1 0
v -17 -1 0
v -18 -2 0
v -19 -2 0
v -19 -1 0
v -18 -1 0
v -19 -2 0
v -20 -2 0
v -20 -1 0
v -19 -1 0
v 0 -3 0
v -1 -3 0
v -1 -2 0
v 0 -2 0
v -1 -3 0
v -2 -3 0
v -2 -2 0
v -1 -2 0
v -2 -3 0
v -3 -3 0
v -3 -2 0
v -2 -2 0
v -3 -3 0
v -4 -3 0
v -4 -2 0
v -3 -2 0
v -4 -3 0
v -5 -3 0
v -5 -2 0
v -4 -2 0
v -5 -3 0
v -6 -3 0
v -6 -2 0
v -5 -2 0
v -6 -3 0
v -7 -3 0
v -7 -2 0
v -6 -2 0
v -7 -3 0
v -8 -3 0
v -8 -2 0
v -7 -2 0
v -8 -3 0
v -9 -3 0
v -9 -2 0
v -8 -2 0
v -9 -3 0
v -10 -3 0
v -10 -2 0
v -9 -2 0
v -10 -3 0
v -11 -3 0
v -11 -2 0
v -10 -2 0
v -11 -3 0
v -12 -3 0
v -12 -2 0
v -11 -2 0
v -12 -3 0
v -13 -3 0
v -13 -2 0
v -12 -2 0
v -13 -3 0
v -14 -3 0
v -14 -2 0
v -13 -2 0
v -14 -3 0
v -15 -3 0
v -15 -2 0
v -14 -2 0
v -15 -3 0
v -16 -3 0
v -16 -2 0
v -15 -2 0
v -16 -3 0
v -17 -3 0
v -17 -2 0
v -16 -2 0
v -17 -3 0
v -18 -3 0
v -18 -2 0
v -17 -2 0
v -18 -3 0
v -19 -3 0
v -19 -2 0
v -18 -2 0
v -19 -3 0
v -20 -3 0
v -20 -2 0
v -19 -2 0
v 0 -4 0
v -1 -4 0
v -1 -3 0
v 0 -3 0
v -19 -4 0
v -20 -4 0
v -20 -3 0
v -19 -3 0
v 0 -5 0
v -1 -5 0
v -1 -4 0
v 0 -4 0
v -19 -5 0
v -20 -5 0
v -20 -4 0
v -19 -4 0
v 0 -6 0
v -1 -6 0
v -1 -5 0
v 0 -5 0
v -5 -6 0
v -6 -6 0
v -6 -5 0
v -5 -5 0
v -19 -6 0
v -20 -6 0
v -20 -5 0
v -19 -5 0
v -5 -7 0
v -6 -7 0
v -6 -6 0
v -5 -6 0
v -6 -7 0
v -7 -7 0
v -7 -6 0
v -6 -6 0
v -7 -7 0
v -8 -7 0
v -8 -6 0
v -7 -6 0
v -8 -7 0
v -9 -7 0
v -9 -6 0
v -8 -6 0
v -9 -7 0
v -10 -7 0
v -10 -6 0
v -9 -6 0
v -10 -7 0
v -11 -7 0
v -11 -6 0
v -10 -6 0
v -11 -7 0
v -12 -7 0
v -12 -6 0
v -11 -6 0
v -12 -7 0
v -13 -7 0
v -13 -6 0
v -12 -6 0
v -13 -7 0
v -14 -7 0
v -14 -6 0
v -13 -6 0
v -14 -7 0
v -15 -7 0
v -15 -6 0
v -14 -6 0
v -19 -7 0
v -20 -7 0
v -20 -6 0
v -19 -6 0
v -5 -8 0
v -6 -8 0
v -6 -7 0
v -5 -7 0
v -6 -8 0
v -7 -8 0
v -7 -7 0
v -6 -7 0
v -7 -8 0
v -8 -8 0
v -8 -7 0
v -7 -7 0
v -8 -8 0
v -9 -8 0
v -9 -7 0
v -8 -7 0
v -9 -8 0
v -10 -8 0
v -10 -7 0
v -9 -7 0
v -10 -8 0
v -11 -8 0
v -11 -7 0
v -10 -7 0
v -11 -8 0
v -12 -8 0
v -12 -7 0
v -11 -7 0
v -12 -8 0
v -13 -8 0
v -13 -7 0
v -12 -7 0
v -13 -8 0
v -14 -8 0
v -14 -7 0
v -13 -7 0
v -14 -8 0
v -15 -8 0
v -15 -7 0
v -14 -7 0
v -19 -8 0
v -20 -8 0
v -20 -7 0
v -19 -7 0
v -5 -9 0
v -6 -9 0
v -6 -8 0
v -5 -8 0
v -6 -9 0
v -7 -9 0
v -7 -8 0
v -6 -8 0
v -7 -9 0
v -8 -9 0
v -8 -8 0
v -7 -8 0
v -8 -9 0
v -9 -9 0
v -9 -8 0
v -8 -8 0
v -9 -9 0
v -10 -9 0
v -10 -8 0
v -9 -8 0
v -10 -9 0
v -11 -9 0
v -11 -8 0
v -10 -8 0
v -11 -9 0
v -12 -9 0
v -12 -8 0
v -11 -8 0
v -12 -9 0
v -13 -9 0
v -13 -8 0
v -12 -8 0
v -13 -9 0
v -14 -9 0
v -14 -8 0
v -13 -8 0
v -14 -9 0
v -15 -9 0
v -15 -8 0
v -14 -8 0
v -19 -9 0
v -20 -9 0
v -20 -8 0
v -19 -8 0
v -2 -10 0
v -3 -10 0
v -3 -9 0
v -2 -9 0
v -5 -10 0
v -6 -10 0
v -6 -9 0
v -5 -9 0
v -19 -10 0
v -20 -10 0
v -20 -9 0
v -19 -9 0
v 0 -11 0
v -1 -11 0
v -1 -10 0
v 0 -10 0
v -2 -11 0
v -3 -11 0
v -3 -10 0
v -2 -10 0
v -3 -11 0
v -4 -11 0
v -4 -10 0
v -3 -10 0
v -5 -11 0
v -6 -11 0
v -6 -10 0
v -5 -10 0
v -12 -11 0
v -13 -11 0
v -13 -10 0
v -12 -10 0
v -13 -11 0
v -14 -11 0
v -14 -10 0
v -13 -10 0
v -19 -11 0
v -20 -11 0
v -20 -10 0
v -19 -10 0
v 0 -12 0
v -1 -12 0
v -1 -11 0
v 0 -11 0
v -2 -12 0
v -3 -12 0
v -3 -11 0
v -2 -11 0
v -3 -12 0
v -4 -12 0
v -4 -11 0
v -3 -11 0
v -5 -12 0
v -6 -12 0
v -6 -11 0
v -5 -11 0
v -10 -12 0
v -11 -12 0
v -11 -11 0
v -10 -11 0
v -12 -12 0
v -13 -12 0
v -13 -11 0
v -12 -11 0
v -13 -12 0
v -14 -12 0
v -14 -11 0
v -13 -11 0
v -19 -12 0
v -20 -12 0
v -20 -11 0
v -19 -11 0
v 0 -13 0
v -1 -13 0
v -1 -12 0
v 0 -12 0
v -3 -13 0
v -4 -13 0
v -4 -12 0
v -3 -12 0
v -6 -13 0
v -7 -13 0
v -7 -12 0
v -6 -12 0
v -10 -13 0
v -11 -13 0
v -11 -12 0
v -10 -12 0
v -12 -13 0
v -13 -13 0
v -13 -12 0
v -12 -12 0
v -13 -13 0
v -14 -13 0
v -14 -12 0
v -13 -12 0
v -19 -13 0
v -20 -13 0
v -20 -12 0
v -19 -12 0
v 0 -14 0
v -1 -14 0
v -1 -13 0
v 0 -13 0
v -6 -14 0
v -7 -14 0
v -7 -13 0
v -6 -13 0
v -10 -14 0
v -11 -14 0
v -11 -13 0
v -10 -13 0
v -15 -14 0
v -16 -14 0
v -16 -13 0
v -15 -13 0
v -19 -14 0
v -20 -14 0
v -20 -13 0
v -19 -13 0
v 0 -15 0
v -1 -15 0
v -1 -14 0
v 0 -14 0
v -6 -15 0
v -7 -15 0
v -7 -14 0
v -6 -14 0
v -13 -15 0
v -14 -15 0
v -14 -14 0
v -13 -14 0
v -15 -15 0
v -16 -15 0
v -16 -14 0
v -15 -14 0
v -19 -15 0
v -20 -15 0
v -20 -14 0
v -19 -14 0
v 0 -16 0
v -1 -16 0
v -1 -15 0
v 0 -15 0
v -8 -16 0
v -9 -16 0
v -9 -15 0
v -8 -15 0
v -13 -16 0
v -14 -16 0
v -14 -15 0
v -13 -15 0
v -15 -16 0
v -16 -16 0
v -16 -15 0
v -15 -15 0
v -19 -16 0
v -20 -16 0
v -20 -15 0
v -19 -15 0
v 0 -17 0
v -1 -17 0
v -1 -16 0
v 0 -16 0
v -8 -17 0
v -9 -17 0
v -9 -16 0
v -8 -16 0
v -13 -17 0
v -14 -17 0
v -14 -16 0
v -13 -16 0
v -19 -17 0
v -20 -17 0
v -20 -16 0
v -19 -16 0
v 0 -18 0
v -1 -18 0
v -1 -17 0
v 0 -17 0
v -8 -18 0
v -9 -18 0
v -9 -17 0
v -8 -17 0
v -19 -18 0
v -20 -18 0
v -20 -17 0
v -19 -17 0
v 0 -19 0
v -1 -19 0
v -1 -18 0
v 0 -18 0
v -1 -19 0
v -2 -19 0
v -2 -18 0
v -1 -18 0
v -2 -19 0
v -3 -19 0
v -3 -18 0
v -2 -18 0
v -3 -19 0
v -4 -19 0
v -4 -18 0
v -3 -18 0
v -4 -19 0
v -5 -19 0
v -5 -18 0
v -4 -18 0
v -5 -19 0
v -6 -19 0
v -6 -18 0
v -5 -18 0
v -6 -19 0
v -7 -19 0
v -7 -18 0
v -6 -18 0
v -7 -19 0
v -8 -19 0
v -8 -18 0
v -7 -18 0
v -8 -19 0
v -9 -19 0
v -9 -18 0
v -8 -18 0
v -9 -19 0
v -10 -19 0
v -10 -18 0
v -9 -18 0
v -10 -19 0
v -11 -19 0
v -11 -18 0
v -10 -18 0
v -11 -19 0
v -12 -19 0
v -12 -18 0
v -11 -18 0
v -12 -19 0
v -13 -19 0
v -13 -18 0
v -12 -18 0
v -13 -19 0
v -14 -19 0
v -14 -18 0
v -13 -18 0
v -14 -19 0
v -15 -19 0
v -15 -18 0
v -14 -18 0
v -15 -19 0
v -16 -19 0
v -16 -18 0
v -15 -18 0
v -16 -19 0
v -17 -19 0
v -17 -18 0
v -16 -18 0
v -17 -19 0
v -18 -19 0
v -18 -18 0
v -17 -18 0
v -18 -19 0
v -19 -19 0
v -19 -18 0
v -18 -18 0
v -19 -19 0
v -20 -19 0
v -20 -18 0
v -19 -18 0
v -18 -20 0
v -19 -20 0
v -19 -19 0
v -18 -19 0
v -19 -20 0
v -20 -20 0
v -20 -19 0
v -19 -19 0

# Texture cooridinates (Count = 61)
vt 0 0.6923077
vt 0.1666667 0.6923077
vt 0.1666667 0.7692308
vt 0 0.7692308
vt 0.3333333 0.6923077
vt 0.3333333 0.7692308
vt 0.5 0.6923077
vt 0.5 0.7692308
vt 0.6666667 0.6923077
vt 0.6666667 0.7692308
vt 0.8333333 0.6923077
vt 0.8333333 0.7692308
vt 0 0.9230769
vt 0.1666667 0.9230769
vt 0.1666667 1
vt 0 1
vt 0.3333333 0.9230769
vt 0.3333333 1
vt 0.5 0.9230769
vt 0.5 1
vt 0.6666667 0.9230769
vt 0.6666667 1
vt 0 0.6153846
vt 0.1666667 0.6153846
vt 0.3333333 0.6153846
vt 0.5 0.6153846
vt 0.6666667 0.6153846
vt 0.8333333 0.6153846
vt 0 0.8461539
vt 0.1666667 0.8461539
vt 0.3333333 0.8461539
vt 0.5 0.8461539
vt 0.6666667 0.8461539
vt 1 0.1538461
vt 1 0.2307692
vt 0.8333333 0.2307692
vt 0.8333333 0.1538461
vt 0.1666667 0.5384616
vt 0.3333333 0.5384616
vt 0.5 0.5384616
vt 0.6666667 0.5384616
vt 0.8333333 0.5384616
vt 0 0.5384616
vt 0.8333333 0.3076923
vt 1 0.3076923
vt 1 0.3846154
vt 0.8333333 0.3846154
vt 0.5 0.1538461
vt 0.6666667 0.1538461
vt 0.6666667 0.2307692
vt 0.5 0.2307692
vt 0.6666667 0.07692307
vt 0.8333333 0.07692307
vt 0.6666667 0
vt 0.8333333 0
vt 0 0
vt 0.1666667 0
vt 0.1666667 0.07692307
vt 0 0.07692307
vt 0.5 0
vt 0.5 0.07692307

# Normal
vn 0 0 -1

# Mesh description
g Try-3-Monopolistic_mesh_0002

# Faces
f 1/1/1 2/2/1 3/3/1 4/4/1
f 5/2/1 6/5/1 7/6/1 8/3/1
f 9/5/1 10/7/1 11/8/1 12/6/1
f 13/7/1 14/9/1 15/10/1 16/8/1
f 17/9/1 18/11/1 19/12/1 20/10/1
f 21/13/1 22/14/1 23/15/1 24/16/1
f 25/14/1 26/17/1 27/18/1 28/15/1
f 29/17/1 30/19/1 31/20/1 32/18/1
f 33/19/1 34/21/1 35/22/1 36/20/1
f 37/7/1 38/9/1 39/10/1 40/8/1
f 41/9/1 42/11/1 43/12/1 44/10/1
f 45/14/1 46/17/1 47/18/1 48/15/1
f 49/17/1 50/19/1 51/20/1 52/18/1
f 53/1/1 54/2/1 55/3/1 56/4/1
f 57/1/1 58/2/1 59/3/1 60/4/1
f 61/13/1 62/14/1 63/15/1 64/16/1
f 65/14/1 66/17/1 67/18/1 68/15/1
f 69/2/1 70/5/1 71/6/1 72/3/1
f 73/5/1 74/7/1 75/8/1 76/6/1
f 77/7/1 78/9/1 79/10/1 80/8/1
f 81/23/1 82/24/1 83/2/1 84/1/1
f 85/24/1 86/25/1 87/5/1 88/2/1
f 89/25/1 90/26/1 91/7/1 92/5/1
f 93/26/1 94/27/1 95/9/1 96/7/1
f 97/27/1 98/28/1 99/11/1 100/9/1
f 101/29/1 102/30/1 103/14/1 104/13/1
f 105/30/1 106/31/1 107/17/1 108/14/1
f 109/31/1 110/32/1 111/19/1 112/17/1
f 113/32/1 114/33/1 115/21/1 116/19/1
f 117/26/1 118/27/1 119/9/1 120/7/1
f 121/27/1 122/28/1 123/11/1 124/9/1
f 125/30/1 126/31/1 127/17/1 128/14/1
f 129/31/1 130/32/1 131/19/1 132/17/1
f 133/23/1 134/24/1 135/2/1 136/1/1
f 137/23/1 138/24/1 139/2/1 140/1/1
f 141/29/1 142/30/1 143/14/1 144/13/1
f 145/30/1 146/31/1 147/17/1 148/14/1
f 149/24/1 150/25/1 151/5/1 152/2/1
f 153/25/1 154/26/1 155/7/1 156/5/1
f 157/26/1 158/27/1 159/9/1 160/7/1
f 161/34/1 162/35/1 163/36/1 164/37/1
f 165/38/1 166/39/1 167/25/1 168/24/1
f 169/39/1 170/40/1 171/26/1 172/25/1
f 173/40/1 174/41/1 175/27/1 176/26/1
f 177/41/1 178/42/1 179/28/1 180/27/1
f 181/4/1 182/3/1 183/30/1 184/29/1
f 185/3/1 186/6/1 187/31/1 188/30/1
f 189/6/1 190/8/1 191/32/1 192/31/1
f 193/8/1 194/10/1 195/33/1 196/32/1
f 197/40/1 198/41/1 199/27/1 200/26/1
f 201/41/1 202/42/1 203/28/1 204/27/1
f 205/3/1 206/6/1 207/31/1 208/30/1
f 209/6/1 210/8/1 211/32/1 212/31/1
f 213/43/1 214/38/1 215/24/1 216/23/1
f 217/43/1 218/38/1 219/24/1 220/23/1
f 221/4/1 222/3/1 223/30/1 224/29/1
f 225/3/1 226/6/1 227/31/1 228/30/1
f 229/38/1 230/39/1 231/25/1 232/24/1
f 233/39/1 234/40/1 235/26/1 236/25/1
f 237/40/1 238/41/1 239/27/1 240/26/1
f 241/34/1 242/35/1 243/36/1 244/37/1
f 245/44/1 246/45/1 247/46/1 248/47/1
f 249/34/1 250/35/1 251/36/1 252/37/1
f 253/48/1 254/49/1 255/50/1 256/51/1
f 257/34/1 258/35/1 259/36/1 260/37/1
f 261/52/1 262/53/1 263/37/1 264/49/1
f 265/48/1 266/49/1 267/50/1 268/51/1
f 269/14/1 270/17/1 271/18/1 272/15/1
f 273/14/1 274/17/1 275/18/1 276/15/1
f 277/17/1 278/19/1 279/20/1 280/18/1
f 281/14/1 282/17/1 283/18/1 284/15/1
f 285/17/1 286/19/1 287/20/1 288/18/1
f 289/13/1 290/14/1 291/15/1 292/16/1
f 293/17/1 294/19/1 295/20/1 296/18/1
f 297/14/1 298/17/1 299/18/1 300/15/1
f 301/14/1 302/17/1 303/18/1 304/15/1
f 305/17/1 306/19/1 307/20/1 308/18/1
f 309/48/1 310/49/1 311/50/1 312/51/1
f 313/30/1 314/31/1 315/17/1 316/14/1
f 317/30/1 318/31/1 319/17/1 320/14/1
f 321/30/1 322/31/1 323/17/1 324/14/1
f 325/31/1 326/32/1 327/19/1 328/17/1
f 329/31/1 330/32/1 331/19/1 332/17/1
f 333/29/1 334/30/1 335/14/1 336/13/1
f 337/31/1 338/32/1 339/19/1 340/17/1
f 341/30/1 342/31/1 343/17/1 344/14/1
f 345/30/1 346/31/1 347/17/1 348/14/1
f 349/31/1 350/32/1 351/19/1 352/17/1
f 353/48/1 354/49/1 355/50/1 356/51/1
f 357/6/1 358/8/1 359/32/1 360/31/1
f 361/6/1 362/8/1 363/32/1 364/31/1
f 365/6/1 366/8/1 367/32/1 368/31/1
f 369/3/1 370/6/1 371/31/1 372/30/1
f 373/6/1 374/8/1 375/32/1 376/31/1
f 377/4/1 378/3/1 379/30/1 380/29/1
f 381/6/1 382/8/1 383/32/1 384/31/1
f 385/3/1 386/6/1 387/31/1 388/30/1
f 389/3/1 390/6/1 391/31/1 392/30/1
f 393/6/1 394/8/1 395/32/1 396/31/1
f 397/48/1 398/49/1 399/50/1 400/51/1
f 401/49/1 402/37/1 403/36/1 404/50/1
f 405/14/1 406/17/1 407/18/1 408/15/1
f 409/48/1 410/49/1 411/50/1 412/51/1
f 413/34/1 414/35/1 415/36/1 416/37/1
f 417/52/1 418/53/1 419/37/1 420/49/1
f 421/7/1 422/9/1 423/10/1 424/8/1
f 425/30/1 426/31/1 427/17/1 428/14/1
f 429/7/1 430/9/1 431/10/1 432/8/1
f 433/14/1 434/17/1 435/18/1 436/15/1
f 437/48/1 438/49/1 439/50/1 440/51/1
f 441/34/1 442/35/1 443/36/1 444/37/1
f 445/54/1 446/55/1 447/53/1 448/52/1
f 449/26/1 450/27/1 451/9/1 452/7/1
f 453/3/1 454/6/1 455/31/1 456/30/1
f 457/14/1 458/17/1 459/18/1 460/15/1
f 461/26/1 462/27/1 463/9/1 464/7/1
f 465/30/1 466/31/1 467/17/1 468/14/1
f 469/48/1 470/49/1 471/50/1 472/51/1
f 473/34/1 474/35/1 475/36/1 476/37/1
f 477/40/1 478/41/1 479/27/1 480/26/1
f 481/14/1 482/17/1 483/18/1 484/15/1
f 485/30/1 486/31/1 487/17/1 488/14/1
f 489/40/1 490/41/1 491/27/1 492/26/1
f 493/3/1 494/6/1 495/31/1 496/30/1
f 497/48/1 498/49/1 499/50/1 500/51/1
f 501/34/1 502/35/1 503/36/1 504/37/1
f 505/30/1 506/31/1 507/17/1 508/14/1
f 509/3/1 510/6/1 511/31/1 512/30/1
f 513/7/1 514/9/1 515/10/1 516/8/1
f 517/48/1 518/49/1 519/50/1 520/51/1
f 521/34/1 522/35/1 523/36/1 524/37/1
f 525/3/1 526/6/1 527/31/1 528/30/1
f 529/7/1 530/9/1 531/10/1 532/8/1
f 533/26/1 534/27/1 535/9/1 536/7/1
f 537/48/1 538/49/1 539/50/1 540/51/1
f 541/34/1 542/35/1 543/36/1 544/37/1
f 545/17/1 546/19/1 547/20/1 548/18/1
f 549/26/1 550/27/1 551/9/1 552/7/1
f 553/40/1 554/41/1 555/27/1 556/26/1
f 557/48/1 558/49/1 559/50/1 560/51/1
f 561/34/1 562/35/1 563/36/1 564/37/1
f 565/29/1 566/30/1 567/14/1 568/13/1
f 569/40/1 570/41/1 571/27/1 572/26/1
f 573/48/1 574/49/1 575/50/1 576/51/1
f 577/34/1 578/35/1 579/36/1 580/37/1
f 581/6/1 582/8/1 583/32/1 584/31/1
f 585/48/1 586/49/1 587/50/1 588/51/1
f 589/34/1 590/35/1 591/36/1 592/37/1
f 593/36/1 594/35/1 595/45/1 596/44/1
f 597/36/1 598/35/1 599/45/1 600/44/1
f 601/36/1 602/35/1 603/45/1 604/44/1
f 605/36/1 606/35/1 607/45/1 608/44/1
f 609/36/1 610/35/1 611/45/1 612/44/1
f 613/36/1 614/35/1 615/45/1 616/44/1
f 617/36/1 618/35/1 619/45/1 620/44/1
f 621/36/1 622/35/1 623/45/1 624/44/1
f 625/36/1 626/35/1 627/45/1 628/44/1
f 629/36/1 630/35/1 631/45/1 632/44/1
f 633/36/1 634/35/1 635/45/1 636/44/1
f 637/36/1 638/35/1 639/45/1 640/44/1
f 641/36/1 642/35/1 643/45/1 644/44/1
f 645/36/1 646/35/1 647/45/1 648/44/1
f 649/36/1 650/35/1 651/45/1 652/44/1
f 653/36/1 654/35/1 655/45/1 656/44/1
f 657/36/1 658/35/1 659/45/1 660/44/1
f 661/36/1 662/35/1 663/45/1 664/44/1
f 665/56/1 666/57/1 667/58/1 668/59/1
f 669/60/1 670/54/1 671/52/1 672/61/1
f 673/54/1 674/55/1 675/53/1 676/52/1

