# Tiled2Unity generated file. Do not modify by hand.
# Wavefront file for 'Try-3-Monopolistic_mesh_0003.obj'

# Vertices (Count = 400)
v 0 -1 0
v -1 -1 0
v -1 0 0
v 0 0 0
v -1 -1 0
v -2 -1 0
v -2 0 0
v -1 0 0
v -2 -1 0
v -3 -1 0
v -3 0 0
v -2 0 0
v -3 -1 0
v -4 -1 0
v -4 0 0
v -3 0 0
v -4 -1 0
v -5 -1 0
v -5 0 0
v -4 0 0
v -5 -1 0
v -6 -1 0
v -6 0 0
v -5 0 0
v -6 -1 0
v -7 -1 0
v -7 0 0
v -6 0 0
v -7 -1 0
v -8 -1 0
v -8 0 0
v -7 0 0
v -8 -1 0
v -9 -1 0
v -9 0 0
v -8 0 0
v -9 -1 0
v -10 -1 0
v -10 0 0
v -9 0 0
v -10 -1 0
v -11 -1 0
v -11 0 0
v -10 0 0
v -11 -1 0
v -12 -1 0
v -12 0 0
v -11 0 0
v -12 -1 0
v -13 -1 0
v -13 0 0
v -12 0 0
v -13 -1 0
v -14 -1 0
v -14 0 0
v -13 0 0
v -14 -1 0
v -15 -1 0
v -15 0 0
v -14 0 0
v -15 -1 0
v -16 -1 0
v -16 0 0
v -15 0 0
v -16 -1 0
v -17 -1 0
v -17 0 0
v -16 0 0
v -17 -1 0
v -18 -1 0
v -18 0 0
v -17 0 0
v -18 -1 0
v -19 -1 0
v -19 0 0
v -18 0 0
v -19 -1 0
v -20 -1 0
v -20 0 0
v -19 0 0
v 0 -2 0
v -1 -2 0
v -1 -1 0
v 0 -1 0
v -19 -2 0
v -20 -2 0
v -20 -1 0
v -19 -1 0
v 0 -3 0
v -1 -3 0
v -1 -2 0
v 0 -2 0
v -19 -3 0
v -20 -3 0
v -20 -2 0
v -19 -2 0
v 0 -4 0
v -1 -4 0
v -1 -3 0
v 0 -3 0
v 0 -5 0
v -1 -5 0
v -1 -4 0
v 0 -4 0
v 0 -6 0
v -1 -6 0
v -1 -5 0
v 0 -5 0
v -5 -7 0
v -6 -7 0
v -6 -6 0
v -5 -6 0
v -6 -7 0
v -7 -7 0
v -7 -6 0
v -6 -6 0
v -7 -7 0
v -8 -7 0
v -8 -6 0
v -7 -6 0
v -8 -7 0
v -9 -7 0
v -9 -6 0
v -8 -6 0
v -9 -7 0
v -10 -7 0
v -10 -6 0
v -9 -6 0
v -10 -7 0
v -11 -7 0
v -11 -6 0
v -10 -6 0
v -11 -7 0
v -12 -7 0
v -12 -6 0
v -11 -6 0
v -12 -7 0
v -13 -7 0
v -13 -6 0
v -12 -6 0
v -13 -7 0
v -14 -7 0
v -14 -6 0
v -13 -6 0
v -14 -7 0
v -15 -7 0
v -15 -6 0
v -14 -6 0
v -5 -8 0
v -6 -8 0
v -6 -7 0
v -5 -7 0
v -6 -8 0
v -7 -8 0
v -7 -7 0
v -6 -7 0
v -7 -8 0
v -8 -8 0
v -8 -7 0
v -7 -7 0
v -8 -8 0
v -9 -8 0
v -9 -7 0
v -8 -7 0
v -9 -8 0
v -10 -8 0
v -10 -7 0
v -9 -7 0
v -10 -8 0
v -11 -8 0
v -11 -7 0
v -10 -7 0
v -11 -8 0
v -12 -8 0
v -12 -7 0
v -11 -7 0
v -12 -8 0
v -13 -8 0
v -13 -7 0
v -12 -7 0
v -13 -8 0
v -14 -8 0
v -14 -7 0
v -13 -7 0
v -14 -8 0
v -15 -8 0
v -15 -7 0
v -14 -7 0
v -4 -10 0
v -5 -10 0
v -5 -9 0
v -4 -9 0
v 0 -11 0
v -1 -11 0
v -1 -10 0
v 0 -10 0
v -2 -11 0
v -3 -11 0
v -3 -10 0
v -2 -10 0
v -4 -11 0
v -5 -11 0
v -5 -10 0
v -4 -10 0
v -14 -11 0
v -15 -11 0
v -15 -10 0
v -14 -10 0
v 0 -12 0
v -1 -12 0
v -1 -11 0
v 0 -11 0
v -2 -12 0
v -3 -12 0
v -3 -11 0
v -2 -11 0
v -4 -12 0
v -5 -12 0
v -5 -11 0
v -4 -11 0
v -9 -12 0
v -10 -12 0
v -10 -11 0
v -9 -11 0
v -14 -12 0
v -15 -12 0
v -15 -11 0
v -14 -11 0
v 0 -13 0
v -1 -13 0
v -1 -12 0
v 0 -12 0
v -2 -13 0
v -3 -13 0
v -3 -12 0
v -2 -12 0
v -5 -13 0
v -6 -13 0
v -6 -12 0
v -5 -12 0
v -9 -13 0
v -10 -13 0
v -10 -12 0
v -9 -12 0
v -14 -13 0
v -15 -13 0
v -15 -12 0
v -14 -12 0
v 0 -14 0
v -1 -14 0
v -1 -13 0
v 0 -13 0
v -5 -14 0
v -6 -14 0
v -6 -13 0
v -5 -13 0
v -9 -14 0
v -10 -14 0
v -10 -13 0
v -9 -13 0
v -16 -14 0
v -17 -14 0
v -17 -13 0
v -16 -13 0
v 0 -15 0
v -1 -15 0
v -1 -14 0
v 0 -14 0
v -5 -15 0
v -6 -15 0
v -6 -14 0
v -5 -14 0
v -12 -15 0
v -13 -15 0
v -13 -14 0
v -12 -14 0
v -16 -15 0
v -17 -15 0
v -17 -14 0
v -16 -14 0
v 0 -16 0
v -1 -16 0
v -1 -15 0
v 0 -15 0
v -9 -16 0
v -10 -16 0
v -10 -15 0
v -9 -15 0
v -12 -16 0
v -13 -16 0
v -13 -15 0
v -12 -15 0
v -16 -16 0
v -17 -16 0
v -17 -15 0
v -16 -15 0
v 0 -17 0
v -1 -17 0
v -1 -16 0
v 0 -16 0
v -9 -17 0
v -10 -17 0
v -10 -16 0
v -9 -16 0
v -12 -17 0
v -13 -17 0
v -13 -16 0
v -12 -16 0
v 0 -18 0
v -1 -18 0
v -1 -17 0
v 0 -17 0
v -9 -18 0
v -10 -18 0
v -10 -17 0
v -9 -17 0
v 0 -19 0
v -1 -19 0
v -1 -18 0
v 0 -18 0
v 0 -20 0
v -1 -20 0
v -1 -19 0
v 0 -19 0
v -1 -20 0
v -2 -20 0
v -2 -19 0
v -1 -19 0
v -2 -20 0
v -3 -20 0
v -3 -19 0
v -2 -19 0
v -3 -20 0
v -4 -20 0
v -4 -19 0
v -3 -19 0
v -4 -20 0
v -5 -20 0
v -5 -19 0
v -4 -19 0
v -5 -20 0
v -6 -20 0
v -6 -19 0
v -5 -19 0
v -6 -20 0
v -7 -20 0
v -7 -19 0
v -6 -19 0
v -7 -20 0
v -8 -20 0
v -8 -19 0
v -7 -19 0
v -8 -20 0
v -9 -20 0
v -9 -19 0
v -8 -19 0
v -9 -20 0
v -10 -20 0
v -10 -19 0
v -9 -19 0
v -10 -20 0
v -11 -20 0
v -11 -19 0
v -10 -19 0
v -11 -20 0
v -12 -20 0
v -12 -19 0
v -11 -19 0
v -12 -20 0
v -13 -20 0
v -13 -19 0
v -12 -19 0
v -13 -20 0
v -14 -20 0
v -14 -19 0
v -13 -19 0
v -14 -20 0
v -15 -20 0
v -15 -19 0
v -14 -19 0
v -15 -20 0
v -16 -20 0
v -16 -19 0
v -15 -19 0
v -16 -20 0
v -17 -20 0
v -17 -19 0
v -16 -19 0
v -17 -20 0
v -18 -20 0
v -18 -19 0
v -17 -19 0
v -18 -20 0
v -19 -20 0
v -19 -19 0
v -18 -19 0
v -19 -20 0
v -20 -20 0
v -20 -19 0
v -19 -19 0

# Texture cooridinates (Count = 49)
vt 0.1666667 0.07692307
vt 0 0.07692307
vt 0 0
vt 0.1666667 0
vt 0.8333333 0.3076923
vt 1 0.3076923
vt 1 0.2307692
vt 0.8333333 0.2307692
vt 0.5 0.07692307
vt 0.3333333 0.07692307
vt 0.3333333 0
vt 0.5 0
vt 0.5 0.1538461
vt 0.3333333 0.1538461
vt 1 0.3846154
vt 0.8333333 0.3846154
vt 0.8333333 0.07692307
vt 1 0.07692307
vt 1 0.1538461
vt 0.8333333 0.1538461
vt 0.8333333 0
vt 1 0
vt 0.8333333 0.6153846
vt 1 0.6153846
vt 1 0.6923077
vt 0.8333333 0.6923077
vt 0.8333333 0.5384616
vt 1 0.5384616
vt 0.6666667 0.6923077
vt 0.8333333 0.7692308
vt 0.6666667 0.7692308
vt 0 0.6923077
vt 0.1666667 0.6923077
vt 0.1666667 0.7692308
vt 0 0.7692308
vt 0.6666667 0.6153846
vt 0 0.6153846
vt 0.1666667 0.6153846
vt 0.6666667 0.5384616
vt 0.3333333 0.6923077
vt 0.3333333 0.7692308
vt 0 0.5384616
vt 0.1666667 0.5384616
vt 0.3333333 0.6153846
vt 0.3333333 0.5384616
vt 0.5 0.6923077
vt 0.5 0.7692308
vt 0.5 0.6153846
vt 0.5 0.5384616

# Normal
vn 0 0 -1

# Mesh description
g Try-3-Monopolistic_mesh_0003

# Faces
f 1/1/1 2/2/1 3/3/1 4/4/1
f 5/5/1 6/6/1 7/7/1 8/8/1
f 9/5/1 10/6/1 11/7/1 12/8/1
f 13/5/1 14/6/1 15/7/1 16/8/1
f 17/5/1 18/6/1 19/7/1 20/8/1
f 21/5/1 22/6/1 23/7/1 24/8/1
f 25/5/1 26/6/1 27/7/1 28/8/1
f 29/5/1 30/6/1 31/7/1 32/8/1
f 33/5/1 34/6/1 35/7/1 36/8/1
f 37/5/1 38/6/1 39/7/1 40/8/1
f 41/5/1 42/6/1 43/7/1 44/8/1
f 45/5/1 46/6/1 47/7/1 48/8/1
f 49/5/1 50/6/1 51/7/1 52/8/1
f 53/5/1 54/6/1 55/7/1 56/8/1
f 57/5/1 58/6/1 59/7/1 60/8/1
f 61/5/1 62/6/1 63/7/1 64/8/1
f 65/5/1 66/6/1 67/7/1 68/8/1
f 69/5/1 70/6/1 71/7/1 72/8/1
f 73/5/1 74/6/1 75/7/1 76/8/1
f 77/9/1 78/10/1 79/11/1 80/12/1
f 81/10/1 82/9/1 83/13/1 84/14/1
f 85/5/1 86/6/1 87/15/1 88/16/1
f 89/10/1 90/9/1 91/13/1 92/14/1
f 93/5/1 94/6/1 95/15/1 96/16/1
f 97/10/1 98/9/1 99/13/1 100/14/1
f 101/10/1 102/9/1 103/13/1 104/14/1
f 105/10/1 106/9/1 107/13/1 108/14/1
f 109/17/1 110/18/1 111/19/1 112/20/1
f 113/17/1 114/18/1 115/19/1 116/20/1
f 117/5/1 118/6/1 119/7/1 120/8/1
f 121/5/1 122/6/1 123/7/1 124/8/1
f 125/5/1 126/6/1 127/7/1 128/8/1
f 129/5/1 130/6/1 131/7/1 132/8/1
f 133/5/1 134/6/1 135/7/1 136/8/1
f 137/5/1 138/6/1 139/7/1 140/8/1
f 141/5/1 142/6/1 143/7/1 144/8/1
f 145/5/1 146/6/1 147/7/1 148/8/1
f 149/21/1 150/22/1 151/18/1 152/17/1
f 153/23/1 154/24/1 155/25/1 156/26/1
f 157/27/1 158/28/1 159/24/1 160/23/1
f 161/27/1 162/28/1 163/24/1 164/23/1
f 165/27/1 166/28/1 167/24/1 168/23/1
f 169/27/1 170/28/1 171/24/1 172/23/1
f 173/27/1 174/28/1 175/24/1 176/23/1
f 177/27/1 178/28/1 179/24/1 180/23/1
f 181/27/1 182/28/1 183/24/1 184/23/1
f 185/27/1 186/28/1 187/24/1 188/23/1
f 189/29/1 190/26/1 191/30/1 192/31/1
f 193/10/1 194/9/1 195/13/1 196/14/1
f 197/32/1 198/33/1 199/34/1 200/35/1
f 201/36/1 202/23/1 203/26/1 204/29/1
f 205/32/1 206/33/1 207/34/1 208/35/1
f 209/10/1 210/9/1 211/13/1 212/14/1
f 213/37/1 214/38/1 215/33/1 216/32/1
f 217/39/1 218/27/1 219/23/1 220/36/1
f 221/33/1 222/40/1 223/41/1 224/34/1
f 225/37/1 226/38/1 227/33/1 228/32/1
f 229/10/1 230/9/1 231/13/1 232/14/1
f 233/42/1 234/43/1 235/38/1 236/37/1
f 237/29/1 238/26/1 239/30/1 240/31/1
f 241/38/1 242/44/1 243/40/1 244/33/1
f 245/42/1 246/43/1 247/38/1 248/37/1
f 249/10/1 250/9/1 251/13/1 252/14/1
f 253/36/1 254/23/1 255/26/1 256/29/1
f 257/43/1 258/45/1 259/44/1 260/38/1
f 261/46/1 262/29/1 263/31/1 264/47/1
f 265/10/1 266/9/1 267/13/1 268/14/1
f 269/39/1 270/27/1 271/23/1 272/36/1
f 273/46/1 274/29/1 275/31/1 276/47/1
f 277/48/1 278/36/1 279/29/1 280/46/1
f 281/10/1 282/9/1 283/13/1 284/14/1
f 285/32/1 286/33/1 287/34/1 288/35/1
f 289/48/1 290/36/1 291/29/1 292/46/1
f 293/49/1 294/39/1 295/36/1 296/48/1
f 297/10/1 298/9/1 299/13/1 300/14/1
f 301/37/1 302/38/1 303/33/1 304/32/1
f 305/49/1 306/39/1 307/36/1 308/48/1
f 309/10/1 310/9/1 311/13/1 312/14/1
f 313/42/1 314/43/1 315/38/1 316/37/1
f 317/11/1 318/12/1 319/9/1 320/10/1
f 321/20/1 322/19/1 323/7/1 324/8/1
f 325/20/1 326/19/1 327/7/1 328/8/1
f 329/20/1 330/19/1 331/7/1 332/8/1
f 333/20/1 334/19/1 335/7/1 336/8/1
f 337/20/1 338/19/1 339/7/1 340/8/1
f 341/20/1 342/19/1 343/7/1 344/8/1
f 345/20/1 346/19/1 347/7/1 348/8/1
f 349/20/1 350/19/1 351/7/1 352/8/1
f 353/20/1 354/19/1 355/7/1 356/8/1
f 357/20/1 358/19/1 359/7/1 360/8/1
f 361/20/1 362/19/1 363/7/1 364/8/1
f 365/20/1 366/19/1 367/7/1 368/8/1
f 369/20/1 370/19/1 371/7/1 372/8/1
f 373/20/1 374/19/1 375/7/1 376/8/1
f 377/20/1 378/19/1 379/7/1 380/8/1
f 381/20/1 382/19/1 383/7/1 384/8/1
f 385/20/1 386/19/1 387/7/1 388/8/1
f 389/20/1 390/19/1 391/7/1 392/8/1
f 393/20/1 394/19/1 395/7/1 396/8/1
f 397/20/1 398/19/1 399/7/1 400/8/1

