# Tiled2Unity generated file. Do not modify by hand.
# Wavefront file for '1Next-Path-After_mesh_0005.obj'

# Vertices (Count = 40)
v -7 -9 0
v -8 -9 0
v -8 -8 0
v -7 -8 0
v -9 -9 0
v -10 -9 0
v -10 -8 0
v -9 -8 0
v -7 -10 0
v -8 -10 0
v -8 -9 0
v -7 -9 0
v -9 -10 0
v -10 -10 0
v -10 -9 0
v -9 -9 0
v -7 -11 0
v -8 -11 0
v -8 -10 0
v -7 -10 0
v -9 -11 0
v -10 -11 0
v -10 -10 0
v -9 -10 0
v -7 -12 0
v -8 -12 0
v -8 -11 0
v -7 -11 0
v -9 -12 0
v -10 -12 0
v -10 -11 0
v -9 -11 0
v -7 -13 0
v -8 -13 0
v -8 -12 0
v -7 -12 0
v -9 -13 0
v -10 -13 0
v -10 -12 0
v -9 -12 0

# Texture cooridinates (Count = 4)
vt 0.3333333 0.3333333
vt 0.6666667 0.3333333
vt 0.6666667 0.5
vt 0.3333333 0.5

# Normal
vn 0 0 -1

# Mesh description
g 1Next-Path-After_mesh_0005

# Faces
f 1/1/1 2/2/1 3/3/1 4/4/1
f 5/1/1 6/2/1 7/3/1 8/4/1
f 9/1/1 10/2/1 11/3/1 12/4/1
f 13/1/1 14/2/1 15/3/1 16/4/1
f 17/1/1 18/2/1 19/3/1 20/4/1
f 21/1/1 22/2/1 23/3/1 24/4/1
f 25/1/1 26/2/1 27/3/1 28/4/1
f 29/1/1 30/2/1 31/3/1 32/4/1
f 33/1/1 34/2/1 35/3/1 36/4/1
f 37/1/1 38/2/1 39/3/1 40/4/1

