# Tiled2Unity generated file. Do not modify by hand.
# Wavefront file for 'Monopoly_mesh_0004.obj'

# Vertices (Count = 48)
v -14 -2 0
v -15 -2 0
v -15 -1 0
v -14 -1 0
v -14 -3 0
v -15 -3 0
v -15 -2 0
v -14 -2 0
v -14 -4 0
v -15 -4 0
v -15 -3 0
v -14 -3 0
v -14 -5 0
v -15 -5 0
v -15 -4 0
v -14 -4 0
v -14 -13 0
v -15 -13 0
v -15 -12 0
v -14 -12 0
v -14 -14 0
v -15 -14 0
v -15 -13 0
v -14 -13 0
v -14 -15 0
v -15 -15 0
v -15 -14 0
v -14 -14 0
v -14 -16 0
v -15 -16 0
v -15 -15 0
v -14 -15 0
v -14 -17 0
v -15 -17 0
v -15 -16 0
v -14 -16 0
v -14 -18 0
v -15 -18 0
v -15 -17 0
v -14 -17 0
v -14 -19 0
v -15 -19 0
v -15 -18 0
v -14 -18 0
v -14 -20 0
v -15 -20 0
v -15 -19 0
v -14 -19 0

# Texture cooridinates (Count = 8)
vt 0.07692308 0.75
vt 0.1538462 0.75
vt 0.1538462 0.875
vt 0.07692308 0.875
vt 0.2307692 0.75
vt 0.2307692 0.875
vt 0 0.75
vt 0 0.875

# Normal
vn 0 0 -1

# Mesh description
g Monopoly_mesh_0004

# Faces
f 1/1/1 2/2/1 3/3/1 4/4/1
f 5/1/1 6/2/1 7/3/1 8/4/1
f 9/2/1 10/5/1 11/6/1 12/3/1
f 13/2/1 14/5/1 15/6/1 16/3/1
f 17/1/1 18/2/1 19/3/1 20/4/1
f 21/1/1 22/2/1 23/3/1 24/4/1
f 25/7/1 26/1/1 27/4/1 28/8/1
f 29/2/1 30/5/1 31/6/1 32/3/1
f 33/7/1 34/1/1 35/4/1 36/8/1
f 37/7/1 38/1/1 39/4/1 40/8/1
f 41/7/1 42/1/1 43/4/1 44/8/1
f 45/2/1 46/5/1 47/6/1 48/3/1

