# Tiled2Unity generated file. Do not modify by hand.
# Wavefront file for 'Monopoly_mesh_0001.obj'

# Vertices (Count = 532)
v 0 -1 0
v -1 -1 0
v -1 0 0
v 0 0 0
v -1 -1 0
v -2 -1 0
v -2 0 0
v -1 0 0
v -2 -1 0
v -3 -1 0
v -3 0 0
v -2 0 0
v -3 -1 0
v -4 -1 0
v -4 0 0
v -3 0 0
v -4 -1 0
v -5 -1 0
v -5 0 0
v -4 0 0
v -5 -1 0
v -6 -1 0
v -6 0 0
v -5 0 0
v -6 -1 0
v -7 -1 0
v -7 0 0
v -6 0 0
v -7 -1 0
v -8 -1 0
v -8 0 0
v -7 0 0
v -8 -1 0
v -9 -1 0
v -9 0 0
v -8 0 0
v -9 -1 0
v -10 -1 0
v -10 0 0
v -9 0 0
v -10 -1 0
v -11 -1 0
v -11 0 0
v -10 0 0
v -11 -1 0
v -12 -1 0
v -12 0 0
v -11 0 0
v -12 -1 0
v -13 -1 0
v -13 0 0
v -12 0 0
v -13 -1 0
v -14 -1 0
v -14 0 0
v -13 0 0
v -14 -1 0
v -15 -1 0
v -15 0 0
v -14 0 0
v -15 -1 0
v -16 -1 0
v -16 0 0
v -15 0 0
v -16 -1 0
v -17 -1 0
v -17 0 0
v -16 0 0
v -17 -1 0
v -18 -1 0
v -18 0 0
v -17 0 0
v -18 -1 0
v -19 -1 0
v -19 0 0
v -18 0 0
v -19 -1 0
v -20 -1 0
v -20 0 0
v -19 0 0
v 0 -2 0
v -1 -2 0
v -1 -1 0
v 0 -1 0
v -14 -2 0
v -15 -2 0
v -15 -1 0
v -14 -1 0
v -15 -2 0
v -16 -2 0
v -16 -1 0
v -15 -1 0
v -16 -2 0
v -17 -2 0
v -17 -1 0
v -16 -1 0
v -17 -2 0
v -18 -2 0
v -18 -1 0
v -17 -1 0
v -18 -2 0
v -19 -2 0
v -19 -1 0
v -18 -1 0
v -19 -2 0
v -20 -2 0
v -20 -1 0
v -19 -1 0
v 0 -3 0
v -1 -3 0
v -1 -2 0
v 0 -2 0
v -14 -3 0
v -15 -3 0
v -15 -2 0
v -14 -2 0
v -15 -3 0
v -16 -3 0
v -16 -2 0
v -15 -2 0
v -16 -3 0
v -17 -3 0
v -17 -2 0
v -16 -2 0
v -17 -3 0
v -18 -3 0
v -18 -2 0
v -17 -2 0
v -18 -3 0
v -19 -3 0
v -19 -2 0
v -18 -2 0
v -19 -3 0
v -20 -3 0
v -20 -2 0
v -19 -2 0
v 0 -4 0
v -1 -4 0
v -1 -3 0
v 0 -3 0
v -14 -4 0
v -15 -4 0
v -15 -3 0
v -14 -3 0
v -15 -4 0
v -16 -4 0
v -16 -3 0
v -15 -3 0
v -16 -4 0
v -17 -4 0
v -17 -3 0
v -16 -3 0
v -17 -4 0
v -18 -4 0
v -18 -3 0
v -17 -3 0
v -18 -4 0
v -19 -4 0
v -19 -3 0
v -18 -3 0
v -19 -4 0
v -20 -4 0
v -20 -3 0
v -19 -3 0
v 0 -5 0
v -1 -5 0
v -1 -4 0
v 0 -4 0
v -15 -5 0
v -16 -5 0
v -16 -4 0
v -15 -4 0
v -16 -5 0
v -17 -5 0
v -17 -4 0
v -16 -4 0
v -17 -5 0
v -18 -5 0
v -18 -4 0
v -17 -4 0
v -18 -5 0
v -19 -5 0
v -19 -4 0
v -18 -4 0
v -19 -5 0
v -20 -5 0
v -20 -4 0
v -19 -4 0
v 0 -6 0
v -1 -6 0
v -1 -5 0
v 0 -5 0
v -15 -6 0
v -16 -6 0
v -16 -5 0
v -15 -5 0
v -16 -6 0
v -17 -6 0
v -17 -5 0
v -16 -5 0
v -17 -6 0
v -18 -6 0
v -18 -5 0
v -17 -5 0
v -18 -6 0
v -19 -6 0
v -19 -5 0
v -18 -5 0
v 0 -7 0
v -1 -7 0
v -1 -6 0
v 0 -6 0
v 0 -8 0
v -1 -8 0
v -1 -7 0
v 0 -7 0
v 0 -9 0
v -1 -9 0
v -1 -8 0
v 0 -8 0
v -15 -9 0
v -16 -9 0
v -16 -8 0
v -15 -8 0
v -16 -9 0
v -17 -9 0
v -17 -8 0
v -16 -8 0
v -17 -9 0
v -18 -9 0
v -18 -8 0
v -17 -8 0
v -18 -9 0
v -19 -9 0
v -19 -8 0
v -18 -8 0
v 0 -10 0
v -1 -10 0
v -1 -9 0
v 0 -9 0
v -15 -10 0
v -16 -10 0
v -16 -9 0
v -15 -9 0
v -16 -10 0
v -17 -10 0
v -17 -9 0
v -16 -9 0
v -17 -10 0
v -18 -10 0
v -18 -9 0
v -17 -9 0
v -18 -10 0
v -19 -10 0
v -19 -9 0
v -18 -9 0
v -19 -10 0
v -20 -10 0
v -20 -9 0
v -19 -9 0
v 0 -11 0
v -1 -11 0
v -1 -10 0
v 0 -10 0
v -15 -11 0
v -16 -11 0
v -16 -10 0
v -15 -10 0
v -16 -11 0
v -17 -11 0
v -17 -10 0
v -16 -10 0
v -17 -11 0
v -18 -11 0
v -18 -10 0
v -17 -10 0
v -18 -11 0
v -19 -11 0
v -19 -10 0
v -18 -10 0
v -19 -11 0
v -20 -11 0
v -20 -10 0
v -19 -10 0
v 0 -12 0
v -1 -12 0
v -1 -11 0
v 0 -11 0
v -15 -12 0
v -16 -12 0
v -16 -11 0
v -15 -11 0
v -16 -12 0
v -17 -12 0
v -17 -11 0
v -16 -11 0
v -17 -12 0
v -18 -12 0
v -18 -11 0
v -17 -11 0
v -18 -12 0
v -19 -12 0
v -19 -11 0
v -18 -11 0
v -19 -12 0
v -20 -12 0
v -20 -11 0
v -19 -11 0
v 0 -13 0
v -1 -13 0
v -1 -12 0
v 0 -12 0
v -14 -13 0
v -15 -13 0
v -15 -12 0
v -14 -12 0
v -15 -13 0
v -16 -13 0
v -16 -12 0
v -15 -12 0
v -16 -13 0
v -17 -13 0
v -17 -12 0
v -16 -12 0
v -17 -13 0
v -18 -13 0
v -18 -12 0
v -17 -12 0
v -18 -13 0
v -19 -13 0
v -19 -12 0
v -18 -12 0
v -19 -13 0
v -20 -13 0
v -20 -12 0
v -19 -12 0
v 0 -14 0
v -1 -14 0
v -1 -13 0
v 0 -13 0
v -14 -14 0
v -15 -14 0
v -15 -13 0
v -14 -13 0
v -15 -14 0
v -16 -14 0
v -16 -13 0
v -15 -13 0
v -16 -14 0
v -17 -14 0
v -17 -13 0
v -16 -13 0
v -17 -14 0
v -18 -14 0
v -18 -13 0
v -17 -13 0
v -18 -14 0
v -19 -14 0
v -19 -13 0
v -18 -13 0
v -19 -14 0
v -20 -14 0
v -20 -13 0
v -19 -13 0
v 0 -15 0
v -1 -15 0
v -1 -14 0
v 0 -14 0
v -14 -15 0
v -15 -15 0
v -15 -14 0
v -14 -14 0
v -15 -15 0
v -16 -15 0
v -16 -14 0
v -15 -14 0
v -16 -15 0
v -17 -15 0
v -17 -14 0
v -16 -14 0
v -17 -15 0
v -18 -15 0
v -18 -14 0
v -17 -14 0
v -18 -15 0
v -19 -15 0
v -19 -14 0
v -18 -14 0
v -19 -15 0
v -20 -15 0
v -20 -14 0
v -19 -14 0
v 0 -16 0
v -1 -16 0
v -1 -15 0
v 0 -15 0
v -14 -16 0
v -15 -16 0
v -15 -15 0
v -14 -15 0
v -15 -16 0
v -16 -16 0
v -16 -15 0
v -15 -15 0
v -16 -16 0
v -17 -16 0
v -17 -15 0
v -16 -15 0
v -17 -16 0
v -18 -16 0
v -18 -15 0
v -17 -15 0
v -18 -16 0
v -19 -16 0
v -19 -15 0
v -18 -15 0
v -19 -16 0
v -20 -16 0
v -20 -15 0
v -19 -15 0
v 0 -17 0
v -1 -17 0
v -1 -16 0
v 0 -16 0
v -14 -17 0
v -15 -17 0
v -15 -16 0
v -14 -16 0
v -15 -17 0
v -16 -17 0
v -16 -16 0
v -15 -16 0
v -16 -17 0
v -17 -17 0
v -17 -16 0
v -16 -16 0
v -17 -17 0
v -18 -17 0
v -18 -16 0
v -17 -16 0
v -18 -17 0
v -19 -17 0
v -19 -16 0
v -18 -16 0
v -19 -17 0
v -20 -17 0
v -20 -16 0
v -19 -16 0
v 0 -18 0
v -1 -18 0
v -1 -17 0
v 0 -17 0
v -14 -18 0
v -15 -18 0
v -15 -17 0
v -14 -17 0
v -15 -18 0
v -16 -18 0
v -16 -17 0
v -15 -17 0
v -16 -18 0
v -17 -18 0
v -17 -17 0
v -16 -17 0
v -17 -18 0
v -18 -18 0
v -18 -17 0
v -17 -17 0
v -18 -18 0
v -19 -18 0
v -19 -17 0
v -18 -17 0
v -19 -18 0
v -20 -18 0
v -20 -17 0
v -19 -17 0
v 0 -19 0
v -1 -19 0
v -1 -18 0
v 0 -18 0
v -14 -19 0
v -15 -19 0
v -15 -18 0
v -14 -18 0
v -15 -19 0
v -16 -19 0
v -16 -18 0
v -15 -18 0
v -16 -19 0
v -17 -19 0
v -17 -18 0
v -16 -18 0
v -17 -19 0
v -18 -19 0
v -18 -18 0
v -17 -18 0
v -18 -19 0
v -19 -19 0
v -19 -18 0
v -18 -18 0
v -19 -19 0
v -20 -19 0
v -20 -18 0
v -19 -18 0
v 0 -20 0
v -1 -20 0
v -1 -19 0
v 0 -19 0
v -14 -20 0
v -15 -20 0
v -15 -19 0
v -14 -19 0
v -15 -20 0
v -16 -20 0
v -16 -19 0
v -15 -19 0
v -16 -20 0
v -17 -20 0
v -17 -19 0
v -16 -19 0
v -17 -20 0
v -18 -20 0
v -18 -19 0
v -17 -19 0
v -18 -20 0
v -19 -20 0
v -19 -19 0
v -18 -19 0
v -19 -20 0
v -20 -20 0
v -20 -19 0
v -19 -19 0

# Texture cooridinates (Count = 19)
vt 0 0.5
vt 0.3333333 0.5
vt 0.3333333 0.6666666
vt 0 0.6666666
vt 0.6666667 0.5
vt 0.6666667 0.6666666
vt 0.3333333 0.3333333
vt 0.6666667 0.3333333
vt 0 0.3333333
vt 0 0
vt 0.3333333 0
vt 0.3333333 0.1666667
vt 0 0.1666667
vt 0.6666667 0
vt 0.6666667 0.1666667
vt 1 0
vt 1 0.1666667
vt 0.3333333 0.8333333
vt 0 0.8333333

# Normal
vn 0 0 -1

# Mesh description
g Monopoly_mesh_0001

# Faces
f 1/1/1 2/2/1 3/3/1 4/4/1
f 5/2/1 6/5/1 7/6/1 8/3/1
f 9/2/1 10/5/1 11/6/1 12/3/1
f 13/2/1 14/5/1 15/6/1 16/3/1
f 17/2/1 18/5/1 19/6/1 20/3/1
f 21/2/1 22/5/1 23/6/1 24/3/1
f 25/2/1 26/5/1 27/6/1 28/3/1
f 29/2/1 30/5/1 31/6/1 32/3/1
f 33/2/1 34/5/1 35/6/1 36/3/1
f 37/2/1 38/5/1 39/6/1 40/3/1
f 41/2/1 42/5/1 43/6/1 44/3/1
f 45/2/1 46/5/1 47/6/1 48/3/1
f 49/2/1 50/5/1 51/6/1 52/3/1
f 53/2/1 54/5/1 55/6/1 56/3/1
f 57/2/1 58/5/1 59/6/1 60/3/1
f 61/2/1 62/5/1 63/6/1 64/3/1
f 65/2/1 66/5/1 67/6/1 68/3/1
f 69/2/1 70/5/1 71/6/1 72/3/1
f 73/7/1 74/8/1 75/5/1 76/2/1
f 77/7/1 78/8/1 79/5/1 80/2/1
f 81/9/1 82/7/1 83/2/1 84/1/1
f 85/9/1 86/7/1 87/2/1 88/1/1
f 89/7/1 90/8/1 91/5/1 92/2/1
f 93/7/1 94/8/1 95/5/1 96/2/1
f 97/10/1 98/11/1 99/12/1 100/13/1
f 101/10/1 102/11/1 103/12/1 104/13/1
f 105/10/1 106/11/1 107/12/1 108/13/1
f 109/9/1 110/7/1 111/2/1 112/1/1
f 113/9/1 114/7/1 115/2/1 116/1/1
f 117/7/1 118/8/1 119/5/1 120/2/1
f 121/10/1 122/11/1 123/12/1 124/13/1
f 125/11/1 126/14/1 127/15/1 128/12/1
f 129/11/1 130/14/1 131/15/1 132/12/1
f 133/11/1 134/14/1 135/15/1 136/12/1
f 137/9/1 138/7/1 139/2/1 140/1/1
f 141/9/1 142/7/1 143/2/1 144/1/1
f 145/7/1 146/8/1 147/5/1 148/2/1
f 149/10/1 150/11/1 151/12/1 152/13/1
f 153/11/1 154/14/1 155/15/1 156/12/1
f 157/14/1 158/16/1 159/17/1 160/15/1
f 161/14/1 162/16/1 163/17/1 164/15/1
f 165/9/1 166/7/1 167/2/1 168/1/1
f 169/10/1 170/11/1 171/12/1 172/13/1
f 173/11/1 174/14/1 175/15/1 176/12/1
f 177/11/1 178/14/1 179/15/1 180/12/1
f 181/14/1 182/16/1 183/17/1 184/15/1
f 185/14/1 186/16/1 187/17/1 188/15/1
f 189/9/1 190/7/1 191/2/1 192/1/1
f 193/10/1 194/11/1 195/12/1 196/13/1
f 197/11/1 198/14/1 199/15/1 200/12/1
f 201/14/1 202/16/1 203/17/1 204/15/1
f 205/14/1 206/16/1 207/17/1 208/15/1
f 209/9/1 210/7/1 211/2/1 212/1/1
f 213/9/1 214/7/1 215/2/1 216/1/1
f 217/9/1 218/7/1 219/2/1 220/1/1
f 221/10/1 222/11/1 223/12/1 224/13/1
f 225/11/1 226/14/1 227/15/1 228/12/1
f 229/14/1 230/16/1 231/17/1 232/15/1
f 233/14/1 234/16/1 235/17/1 236/15/1
f 237/9/1 238/7/1 239/2/1 240/1/1
f 241/10/1 242/11/1 243/12/1 244/13/1
f 245/11/1 246/14/1 247/15/1 248/12/1
f 249/11/1 250/14/1 251/15/1 252/12/1
f 253/14/1 254/16/1 255/17/1 256/15/1
f 257/14/1 258/16/1 259/17/1 260/15/1
f 261/9/1 262/7/1 263/2/1 264/1/1
f 265/7/1 266/8/1 267/5/1 268/2/1
f 269/10/1 270/11/1 271/12/1 272/13/1
f 273/11/1 274/14/1 275/15/1 276/12/1
f 277/14/1 278/16/1 279/17/1 280/15/1
f 281/14/1 282/16/1 283/17/1 284/15/1
f 285/9/1 286/7/1 287/2/1 288/1/1
f 289/7/1 290/8/1 291/5/1 292/2/1
f 293/10/1 294/11/1 295/12/1 296/13/1
f 297/11/1 298/14/1 299/15/1 300/12/1
f 301/11/1 302/14/1 303/15/1 304/12/1
f 305/11/1 306/14/1 307/15/1 308/12/1
f 309/9/1 310/7/1 311/2/1 312/1/1
f 313/9/1 314/7/1 315/2/1 316/1/1
f 317/7/1 318/8/1 319/5/1 320/2/1
f 321/7/1 322/8/1 323/5/1 324/2/1
f 325/10/1 326/11/1 327/12/1 328/13/1
f 329/10/1 330/11/1 331/12/1 332/13/1
f 333/10/1 334/11/1 335/12/1 336/13/1
f 337/9/1 338/7/1 339/2/1 340/1/1
f 341/9/1 342/7/1 343/2/1 344/1/1
f 345/7/1 346/8/1 347/5/1 348/2/1
f 349/7/1 350/8/1 351/5/1 352/2/1
f 353/7/1 354/8/1 355/5/1 356/2/1
f 357/7/1 358/8/1 359/5/1 360/2/1
f 361/7/1 362/8/1 363/5/1 364/2/1
f 365/9/1 366/7/1 367/2/1 368/1/1
f 369/9/1 370/7/1 371/2/1 372/1/1
f 373/7/1 374/8/1 375/5/1 376/2/1
f 377/7/1 378/8/1 379/5/1 380/2/1
f 381/7/1 382/8/1 383/5/1 384/2/1
f 385/7/1 386/8/1 387/5/1 388/2/1
f 389/7/1 390/8/1 391/5/1 392/2/1
f 393/9/1 394/7/1 395/2/1 396/1/1
f 397/9/1 398/7/1 399/2/1 400/1/1
f 401/7/1 402/8/1 403/5/1 404/2/1
f 405/7/1 406/8/1 407/5/1 408/2/1
f 409/7/1 410/8/1 411/5/1 412/2/1
f 413/7/1 414/8/1 415/5/1 416/2/1
f 417/7/1 418/8/1 419/5/1 420/2/1
f 421/9/1 422/7/1 423/2/1 424/1/1
f 425/9/1 426/7/1 427/2/1 428/1/1
f 429/7/1 430/8/1 431/5/1 432/2/1
f 433/7/1 434/8/1 435/5/1 436/2/1
f 437/7/1 438/8/1 439/5/1 440/2/1
f 441/7/1 442/8/1 443/5/1 444/2/1
f 445/7/1 446/8/1 447/5/1 448/2/1
f 449/9/1 450/7/1 451/2/1 452/1/1
f 453/9/1 454/7/1 455/2/1 456/1/1
f 457/7/1 458/8/1 459/5/1 460/2/1
f 461/7/1 462/8/1 463/5/1 464/2/1
f 465/7/1 466/8/1 467/5/1 468/2/1
f 469/7/1 470/8/1 471/5/1 472/2/1
f 473/7/1 474/8/1 475/5/1 476/2/1
f 477/9/1 478/7/1 479/2/1 480/1/1
f 481/9/1 482/7/1 483/2/1 484/1/1
f 485/7/1 486/8/1 487/5/1 488/2/1
f 489/7/1 490/8/1 491/5/1 492/2/1
f 493/7/1 494/8/1 495/5/1 496/2/1
f 497/7/1 498/8/1 499/5/1 500/2/1
f 501/7/1 502/8/1 503/5/1 504/2/1
f 505/13/1 506/12/1 507/7/1 508/9/1
f 509/13/1 510/12/1 511/7/1 512/9/1
f 513/4/1 514/3/1 515/18/1 516/19/1
f 517/4/1 518/3/1 519/18/1 520/19/1
f 521/4/1 522/3/1 523/18/1 524/19/1
f 525/4/1 526/3/1 527/18/1 528/19/1
f 529/4/1 530/3/1 531/18/1 532/19/1

