# Tiled2Unity generated file. Do not modify by hand.
# Wavefront file for 'Monopoly_mesh_0005.obj'

# Vertices (Count = 20)
v -4 -3 0
v -5 -3 0
v -5 -2 0
v -4 -2 0
v -5 -3 0
v -6 -3 0
v -6 -2 0
v -5 -2 0
v -4 -4 0
v -5 -4 0
v -5 -3 0
v -4 -3 0
v -5 -4 0
v -6 -4 0
v -6 -3 0
v -5 -3 0
v -6 -4 0
v -7 -4 0
v -7 -3 0
v -6 -3 0

# Texture cooridinates (Count = 13)
vt 0.6 0.5
vt 0.8 0.5
vt 0.8 0.75
vt 0.6 0.75
vt 1 0.5
vt 1 0.75
vt 0.6 0.25
vt 0.8 0.25
vt 1 0.25
vt 0 0.5
vt 0.2 0.5
vt 0.2 0.75
vt 0 0.75

# Normal
vn 0 0 -1

# Mesh description
g Monopoly_mesh_0005

# Faces
f 1/1/1 2/2/1 3/3/1 4/4/1
f 5/2/1 6/5/1 7/6/1 8/3/1
f 9/7/1 10/8/1 11/2/1 12/1/1
f 13/8/1 14/9/1 15/5/1 16/2/1
f 17/10/1 18/11/1 19/12/1 20/13/1

