# Tiled2Unity generated file. Do not modify by hand.
# Wavefront file for 'Monopoly_mesh_0010.obj'

# Vertices (Count = 104)
v -3 -8 0
v -4 -8 0
v -4 -7 0
v -3 -7 0
v -4 -8 0
v -5 -8 0
v -5 -7 0
v -4 -7 0
v -5 -8 0
v -6 -8 0
v -6 -7 0
v -5 -7 0
v -6 -8 0
v -7 -8 0
v -7 -7 0
v -6 -7 0
v -3 -9 0
v -4 -9 0
v -4 -8 0
v -3 -8 0
v -4 -9 0
v -5 -9 0
v -5 -8 0
v -4 -8 0
v -5 -9 0
v -6 -9 0
v -6 -8 0
v -5 -8 0
v -6 -9 0
v -7 -9 0
v -7 -8 0
v -6 -8 0
v -3 -10 0
v -4 -10 0
v -4 -9 0
v -3 -9 0
v -4 -10 0
v -5 -10 0
v -5 -9 0
v -4 -9 0
v -5 -10 0
v -6 -10 0
v -6 -9 0
v -5 -9 0
v -6 -10 0
v -7 -10 0
v -7 -9 0
v -6 -9 0
v -3 -11 0
v -4 -11 0
v -4 -10 0
v -3 -10 0
v -4 -11 0
v -5 -11 0
v -5 -10 0
v -4 -10 0
v -5 -11 0
v -6 -11 0
v -6 -10 0
v -5 -10 0
v -6 -11 0
v -7 -11 0
v -7 -10 0
v -6 -10 0
v -3 -12 0
v -4 -12 0
v -4 -11 0
v -3 -11 0
v -4 -12 0
v -5 -12 0
v -5 -11 0
v -4 -11 0
v -5 -12 0
v -6 -12 0
v -6 -11 0
v -5 -11 0
v -6 -12 0
v -7 -12 0
v -7 -11 0
v -6 -11 0
v -7 -14 0
v -8 -14 0
v -8 -13 0
v -7 -13 0
v -8 -14 0
v -9 -14 0
v -9 -13 0
v -8 -13 0
v -7 -15 0
v -8 -15 0
v -8 -14 0
v -7 -14 0
v -8 -15 0
v -9 -15 0
v -9 -14 0
v -8 -14 0
v -7 -16 0
v -8 -16 0
v -8 -15 0
v -7 -15 0
v -8 -16 0
v -9 -16 0
v -9 -15 0
v -8 -15 0

# Texture cooridinates (Count = 12)
vt 0.3636364 0.8
vt 0.4545455 0.8
vt 0.4545455 1
vt 0.3636364 1
vt 0.4545455 0.6
vt 0.5454546 0.6
vt 0.5454546 0.8
vt 0.5454546 1
vt 0.3636364 0.6
vt 0.3636364 0.4
vt 0.4545455 0.4
vt 0.5454546 0.4

# Normal
vn 0 0 -1

# Mesh description
g Monopoly_mesh_0010

# Faces
f 1/1/1 2/2/1 3/3/1 4/4/1
f 5/2/1 6/5/1 7/6/1 8/7/1
f 9/2/1 10/5/1 11/6/1 12/7/1
f 13/2/1 14/7/1 15/8/1 16/3/1
f 17/9/1 18/5/1 19/2/1 20/1/1
f 21/2/1 22/5/1 23/6/1 24/7/1
f 25/2/1 26/5/1 27/6/1 28/7/1
f 29/5/1 30/6/1 31/7/1 32/2/1
f 33/9/1 34/5/1 35/2/1 36/1/1
f 37/2/1 38/5/1 39/6/1 40/7/1
f 41/2/1 42/5/1 43/6/1 44/7/1
f 45/5/1 46/6/1 47/7/1 48/2/1
f 49/9/1 50/5/1 51/2/1 52/1/1
f 53/2/1 54/5/1 55/6/1 56/7/1
f 57/2/1 58/5/1 59/6/1 60/7/1
f 61/5/1 62/6/1 63/7/1 64/2/1
f 65/10/1 66/11/1 67/5/1 68/9/1
f 69/1/1 70/9/1 71/5/1 72/2/1
f 73/1/1 74/9/1 75/5/1 76/2/1
f 77/11/1 78/12/1 79/6/1 80/5/1
f 81/1/1 82/2/1 83/3/1 84/4/1
f 85/2/1 86/7/1 87/8/1 88/3/1
f 89/9/1 90/5/1 91/2/1 92/1/1
f 93/5/1 94/6/1 95/7/1 96/2/1
f 97/10/1 98/11/1 99/5/1 100/9/1
f 101/11/1 102/12/1 103/6/1 104/5/1

