# Tiled2Unity generated file. Do not modify by hand.
# Wavefront file for 'Monopoly_mesh_0012.obj'

# Vertices (Count = 32)
v -4 -9 0
v -5 -9 0
v -5 -8 0
v -4 -8 0
v -5 -9 0
v -6 -9 0
v -6 -8 0
v -5 -8 0
v -4 -10 0
v -5 -10 0
v -5 -9 0
v -4 -9 0
v -5 -10 0
v -6 -10 0
v -6 -9 0
v -5 -9 0
v -4 -11 0
v -5 -11 0
v -5 -10 0
v -4 -10 0
v -5 -11 0
v -6 -11 0
v -6 -10 0
v -5 -10 0
v -7 -14 0
v -8 -14 0
v -8 -13 0
v -7 -13 0
v -8 -14 0
v -9 -14 0
v -9 -13 0
v -8 -13 0

# Texture cooridinates (Count = 10)
vt 0.5454546 0.8
vt 0.5454546 0.6
vt 0.4545455 0.6
vt 0.4545455 0.8
vt 0 0.2
vt 0.09090909 0.2
vt 0.09090909 0.4
vt 0 0.4
vt 0.1818182 0.2
vt 0.1818182 0.4

# Normal
vn 0 0 -1

# Mesh description
g Monopoly_mesh_0012

# Faces
f 1/1/1 2/2/1 3/3/1 4/4/1
f 5/1/1 6/2/1 7/3/1 8/4/1
f 9/1/1 10/2/1 11/3/1 12/4/1
f 13/1/1 14/2/1 15/3/1 16/4/1
f 17/1/1 18/2/1 19/3/1 20/4/1
f 21/1/1 22/2/1 23/3/1 24/4/1
f 25/5/1 26/6/1 27/7/1 28/8/1
f 29/6/1 30/9/1 31/10/1 32/7/1

