# Tiled2Unity generated file. Do not modify by hand.
# Wavefront file for 'Monopoly-Upstairs_mesh_0004.obj'

# Vertices (Count = 232)
v 0 -1 0
v -1 -1 0
v -1 0 0
v 0 0 0
v -1 -1 0
v -2 -1 0
v -2 0 0
v -1 0 0
v -2 -1 0
v -3 -1 0
v -3 0 0
v -2 0 0
v -3 -1 0
v -4 -1 0
v -4 0 0
v -3 0 0
v -4 -1 0
v -5 -1 0
v -5 0 0
v -4 0 0
v -5 -1 0
v -6 -1 0
v -6 0 0
v -5 0 0
v -6 -1 0
v -7 -1 0
v -7 0 0
v -6 0 0
v -7 -1 0
v -8 -1 0
v -8 0 0
v -7 0 0
v -8 -1 0
v -9 -1 0
v -9 0 0
v -8 0 0
v -9 -1 0
v -10 -1 0
v -10 0 0
v -9 0 0
v -10 -1 0
v -11 -1 0
v -11 0 0
v -10 0 0
v -11 -1 0
v -12 -1 0
v -12 0 0
v -11 0 0
v -12 -1 0
v -13 -1 0
v -13 0 0
v -12 0 0
v -13 -1 0
v -14 -1 0
v -14 0 0
v -13 0 0
v -14 -1 0
v -15 -1 0
v -15 0 0
v -14 0 0
v -15 -1 0
v -16 -1 0
v -16 0 0
v -15 0 0
v -16 -1 0
v -17 -1 0
v -17 0 0
v -16 0 0
v -17 -1 0
v -18 -1 0
v -18 0 0
v -17 0 0
v -18 -1 0
v -19 -1 0
v -19 0 0
v -18 0 0
v -19 -1 0
v -20 -1 0
v -20 0 0
v -19 0 0
v 0 -2 0
v -1 -2 0
v -1 -1 0
v 0 -1 0
v -19 -2 0
v -20 -2 0
v -20 -1 0
v -19 -1 0
v 0 -3 0
v -1 -3 0
v -1 -2 0
v 0 -2 0
v -19 -3 0
v -20 -3 0
v -20 -2 0
v -19 -2 0
v 0 -4 0
v -1 -4 0
v -1 -3 0
v 0 -3 0
v -19 -4 0
v -20 -4 0
v -20 -3 0
v -19 -3 0
v 0 -5 0
v -1 -5 0
v -1 -4 0
v 0 -4 0
v -19 -5 0
v -20 -5 0
v -20 -4 0
v -19 -4 0
v 0 -6 0
v -1 -6 0
v -1 -5 0
v 0 -5 0
v -19 -6 0
v -20 -6 0
v -20 -5 0
v -19 -5 0
v 0 -7 0
v -1 -7 0
v -1 -6 0
v 0 -6 0
v -19 -7 0
v -20 -7 0
v -20 -6 0
v -19 -6 0
v 0 -8 0
v -1 -8 0
v -1 -7 0
v 0 -7 0
v -19 -8 0
v -20 -8 0
v -20 -7 0
v -19 -7 0
v 0 -9 0
v -1 -9 0
v -1 -8 0
v 0 -8 0
v -19 -9 0
v -20 -9 0
v -20 -8 0
v -19 -8 0
v 0 -10 0
v -1 -10 0
v -1 -9 0
v 0 -9 0
v -19 -10 0
v -20 -10 0
v -20 -9 0
v -19 -9 0
v 0 -11 0
v -1 -11 0
v -1 -10 0
v 0 -10 0
v -19 -11 0
v -20 -11 0
v -20 -10 0
v -19 -10 0
v 0 -12 0
v -1 -12 0
v -1 -11 0
v 0 -11 0
v -19 -12 0
v -20 -12 0
v -20 -11 0
v -19 -11 0
v 0 -13 0
v -1 -13 0
v -1 -12 0
v 0 -12 0
v -19 -13 0
v -20 -13 0
v -20 -12 0
v -19 -12 0
v 0 -14 0
v -1 -14 0
v -1 -13 0
v 0 -13 0
v -19 -14 0
v -20 -14 0
v -20 -13 0
v -19 -13 0
v 0 -15 0
v -1 -15 0
v -1 -14 0
v 0 -14 0
v -19 -15 0
v -20 -15 0
v -20 -14 0
v -19 -14 0
v 0 -16 0
v -1 -16 0
v -1 -15 0
v 0 -15 0
v -19 -16 0
v -20 -16 0
v -20 -15 0
v -19 -15 0
v 0 -17 0
v -1 -17 0
v -1 -16 0
v 0 -16 0
v -19 -17 0
v -20 -17 0
v -20 -16 0
v -19 -16 0
v 0 -18 0
v -1 -18 0
v -1 -17 0
v 0 -17 0
v -19 -18 0
v -20 -18 0
v -20 -17 0
v -19 -17 0
v 0 -19 0
v -1 -19 0
v -1 -18 0
v 0 -18 0
v -19 -19 0
v -20 -19 0
v -20 -18 0
v -19 -18 0
v 0 -20 0
v -1 -20 0
v -1 -19 0
v 0 -19 0
v -19 -20 0
v -20 -20 0
v -20 -19 0
v -19 -19 0

# Texture cooridinates (Count = 21)
vt 0.3333333 0.8333333
vt 0.6666667 0.8333333
vt 0.6666667 1
vt 0.3333333 1
vt 0 0.6666666
vt 0.3333333 0.6666666
vt 0 0.8333333
vt 1 0.8333333
vt 1 1
vt 0.6666667 0.3333333
vt 1 0.3333333
vt 1 0.5
vt 0.6666667 0.5
vt 0 0.3333333
vt 0.3333333 0.3333333
vt 0.3333333 0.5
vt 0 0.5
vt 0.6666667 0.1666667
vt 1 0.1666667
vt 0 0.1666667
vt 0.3333333 0.1666667

# Normal
vn 0 0 -1

# Mesh description
g Monopoly-Upstairs_mesh_0004

# Faces
f 1/1/1 2/2/1 3/3/1 4/4/1
f 5/5/1 6/6/1 7/1/1 8/7/1
f 9/5/1 10/6/1 11/1/1 12/7/1
f 13/5/1 14/6/1 15/1/1 16/7/1
f 17/5/1 18/6/1 19/1/1 20/7/1
f 21/5/1 22/6/1 23/1/1 24/7/1
f 25/5/1 26/6/1 27/1/1 28/7/1
f 29/5/1 30/6/1 31/1/1 32/7/1
f 33/5/1 34/6/1 35/1/1 36/7/1
f 37/5/1 38/6/1 39/1/1 40/7/1
f 41/5/1 42/6/1 43/1/1 44/7/1
f 45/5/1 46/6/1 47/1/1 48/7/1
f 49/5/1 50/6/1 51/1/1 52/7/1
f 53/5/1 54/6/1 55/1/1 56/7/1
f 57/5/1 58/6/1 59/1/1 60/7/1
f 61/5/1 62/6/1 63/1/1 64/7/1
f 65/5/1 66/6/1 67/1/1 68/7/1
f 69/5/1 70/6/1 71/1/1 72/7/1
f 73/5/1 74/6/1 75/1/1 76/7/1
f 77/2/1 78/8/1 79/9/1 80/3/1
f 81/10/1 82/11/1 83/12/1 84/13/1
f 85/14/1 86/15/1 87/16/1 88/17/1
f 89/10/1 90/11/1 91/12/1 92/13/1
f 93/14/1 94/15/1 95/16/1 96/17/1
f 97/10/1 98/11/1 99/12/1 100/13/1
f 101/14/1 102/15/1 103/16/1 104/17/1
f 105/10/1 106/11/1 107/12/1 108/13/1
f 109/14/1 110/15/1 111/16/1 112/17/1
f 113/10/1 114/11/1 115/12/1 116/13/1
f 117/14/1 118/15/1 119/16/1 120/17/1
f 121/10/1 122/11/1 123/12/1 124/13/1
f 125/14/1 126/15/1 127/16/1 128/17/1
f 129/10/1 130/11/1 131/12/1 132/13/1
f 133/14/1 134/15/1 135/16/1 136/17/1
f 137/10/1 138/11/1 139/12/1 140/13/1
f 141/14/1 142/15/1 143/16/1 144/17/1
f 145/10/1 146/11/1 147/12/1 148/13/1
f 149/14/1 150/15/1 151/16/1 152/17/1
f 153/10/1 154/11/1 155/12/1 156/13/1
f 157/14/1 158/15/1 159/16/1 160/17/1
f 161/10/1 162/11/1 163/12/1 164/13/1
f 165/14/1 166/15/1 167/16/1 168/17/1
f 169/10/1 170/11/1 171/12/1 172/13/1
f 173/14/1 174/15/1 175/16/1 176/17/1
f 177/10/1 178/11/1 179/12/1 180/13/1
f 181/14/1 182/15/1 183/16/1 184/17/1
f 185/10/1 186/11/1 187/12/1 188/13/1
f 189/14/1 190/15/1 191/16/1 192/17/1
f 193/10/1 194/11/1 195/12/1 196/13/1
f 197/14/1 198/15/1 199/16/1 200/17/1
f 201/10/1 202/11/1 203/12/1 204/13/1
f 205/14/1 206/15/1 207/16/1 208/17/1
f 209/10/1 210/11/1 211/12/1 212/13/1
f 213/14/1 214/15/1 215/16/1 216/17/1
f 217/10/1 218/11/1 219/12/1 220/13/1
f 221/14/1 222/15/1 223/16/1 224/17/1
f 225/18/1 226/19/1 227/11/1 228/10/1
f 229/20/1 230/21/1 231/15/1 232/14/1

