# Tiled2Unity generated file. Do not modify by hand.
# Wavefront file for '1_mesh_0004.obj'

# Vertices (Count = 52)
v -1 -2 0
v -2 -2 0
v -2 -1 0
v -1 -1 0
v -2 -2 0
v -3 -2 0
v -3 -1 0
v -2 -1 0
v -1 -3 0
v -2 -3 0
v -2 -2 0
v -1 -2 0
v -2 -3 0
v -3 -3 0
v -3 -2 0
v -2 -2 0
v -1 -4 0
v -2 -4 0
v -2 -3 0
v -1 -3 0
v -2 -4 0
v -3 -4 0
v -3 -3 0
v -2 -3 0
v 0 -6 0
v -1 -6 0
v -1 -5 0
v 0 -5 0
v -1 -6 0
v -2 -6 0
v -2 -5 0
v -1 -5 0
v 0 -7 0
v -1 -7 0
v -1 -6 0
v 0 -6 0
v -1 -7 0
v -2 -7 0
v -2 -6 0
v -1 -6 0
v -2 -7 0
v -3 -7 0
v -3 -6 0
v -2 -6 0
v 0 -8 0
v -1 -8 0
v -1 -7 0
v 0 -7 0
v -1 -8 0
v -2 -8 0
v -2 -7 0
v -1 -7 0

# Texture cooridinates (Count = 24)
vt 0.1818182 0.8
vt 0.2727273 0.8
vt 0.2727273 1
vt 0.1818182 1
vt 0.3636364 0.8
vt 0.3636364 1
vt 0.1818182 0.6
vt 0.2727273 0.6
vt 0.3636364 0.6
vt 0.1818182 0.4
vt 0.2727273 0.4
vt 0.3636364 0.4
vt 0.4545455 0.8
vt 0.4545455 1
vt 0.5454546 0.8
vt 0.5454546 1
vt 0.4545455 0.6
vt 0.5454546 0.6
vt 0.6363636 0.8
vt 0.7272727 0.8
vt 0.7272727 1
vt 0.6363636 1
vt 0.4545455 0.4
vt 0.5454546 0.4

# Normal
vn 0 0 -1

# Mesh description
g 1_mesh_0004

# Faces
f 1/1/1 2/2/1 3/3/1 4/4/1
f 5/2/1 6/5/1 7/6/1 8/3/1
f 9/7/1 10/8/1 11/2/1 12/1/1
f 13/8/1 14/9/1 15/5/1 16/2/1
f 17/10/1 18/11/1 19/8/1 20/7/1
f 21/11/1 22/12/1 23/9/1 24/8/1
f 25/5/1 26/13/1 27/14/1 28/6/1
f 29/13/1 30/15/1 31/16/1 32/14/1
f 33/9/1 34/17/1 35/13/1 36/5/1
f 37/17/1 38/18/1 39/15/1 40/13/1
f 41/19/1 42/20/1 43/21/1 44/22/1
f 45/12/1 46/23/1 47/17/1 48/9/1
f 49/23/1 50/24/1 51/18/1 52/17/1

