# Tiled2Unity generated file. Do not modify by hand.
# Wavefront file for '1Next-Path_mesh_0008.obj'

# Vertices (Count = 24)
v 0 -1 0
v -1 -1 0
v -1 0 0
v 0 0 0
v 0 -2 0
v -1 -2 0
v -1 -1 0
v 0 -1 0
v 0 -3 0
v -1 -3 0
v -1 -2 0
v 0 -2 0
v 0 -4 0
v -1 -4 0
v -1 -3 0
v 0 -3 0
v 0 -5 0
v -1 -5 0
v -1 -4 0
v 0 -4 0
v 0 -6 0
v -1 -6 0
v -1 -5 0
v 0 -5 0

# Texture cooridinates (Count = 10)
vt 0.4166667 0.7777778
vt 0.5 0.7777778
vt 0.5 0.8888889
vt 0.4166667 0.8888889
vt 0.4166667 0.6666666
vt 0.5 0.6666666
vt 0.4166667 0.5555556
vt 0.5 0.5555556
vt 0.4166667 0.4444444
vt 0.5 0.4444444

# Normal
vn 0 0 -1

# Mesh description
g 1Next-Path_mesh_0008

# Faces
f 1/1/1 2/2/1 3/3/1 4/4/1
f 5/1/1 6/2/1 7/3/1 8/4/1
f 9/1/1 10/2/1 11/3/1 12/4/1
f 13/5/1 14/6/1 15/2/1 16/1/1
f 17/7/1 18/8/1 19/6/1 20/5/1
f 21/9/1 22/10/1 23/8/1 24/7/1

