# Tiled2Unity generated file. Do not modify by hand.
# Wavefront file for '1Next-Path_mesh_0009.obj'

# Vertices (Count = 8)
v 0 -7 0
v -1 -7 0
v -1 -6 0
v 0 -6 0
v 0 -8 0
v -1 -8 0
v -1 -7 0
v 0 -7 0

# Texture cooridinates (Count = 6)
vt 0.4444444 0.2857143
vt 0.5555556 0.2857143
vt 0.5555556 0.4285714
vt 0.4444444 0.4285714
vt 0.4444444 0.1428571
vt 0.5555556 0.1428571

# Normal
vn 0 0 -1

# Mesh description
g 1Next-Path_mesh_0009

# Faces
f 1/1/1 2/2/1 3/3/1 4/4/1
f 5/5/1 6/6/1 7/2/1 8/1/1

