# Tiled2Unity generated file. Do not modify by hand.
# Wavefront file for 'Free-Market_mesh_0005.obj'

# Vertices (Count = 72)
v -3 -4 0
v -4 -4 0
v -4 -3 0
v -3 -3 0
v -3 -5 0
v -4 -5 0
v -4 -4 0
v -3 -4 0
v -16 -6 0
v -17 -6 0
v -17 -5 0
v -16 -5 0
v -17 -6 0
v -18 -6 0
v -18 -5 0
v -17 -5 0
v -16 -7 0
v -17 -7 0
v -17 -6 0
v -16 -6 0
v -17 -7 0
v -18 -7 0
v -18 -6 0
v -17 -6 0
v -12 -8 0
v -13 -8 0
v -13 -7 0
v -12 -7 0
v -12 -9 0
v -13 -9 0
v -13 -8 0
v -12 -8 0
v -5 -11 0
v -6 -11 0
v -6 -10 0
v -5 -10 0
v -5 -12 0
v -6 -12 0
v -6 -11 0
v -5 -11 0
v -9 -13 0
v -10 -13 0
v -10 -12 0
v -9 -12 0
v -9 -14 0
v -10 -14 0
v -10 -13 0
v -9 -13 0
v -16 -15 0
v -17 -15 0
v -17 -14 0
v -16 -14 0
v -4 -16 0
v -5 -16 0
v -5 -15 0
v -4 -15 0
v -5 -16 0
v -6 -16 0
v -6 -15 0
v -5 -15 0
v -16 -16 0
v -17 -16 0
v -17 -15 0
v -16 -15 0
v -4 -17 0
v -5 -17 0
v -5 -16 0
v -4 -16 0
v -5 -17 0
v -6 -17 0
v -6 -16 0
v -5 -16 0

# Texture cooridinates (Count = 15)
vt 0 0.5
vt 0.25 0.5
vt 0.25 1
vt 0 1
vt 0 0
vt 0.25 0
vt 0.5 0.5
vt 0.75 0.5
vt 0.75 1
vt 0.5 1
vt 1 0.5
vt 1 1
vt 0.5 0
vt 0.75 0
vt 1 0

# Normal
vn 0 0 -1

# Mesh description
g Free-Market_mesh_0005

# Faces
f 1/1/1 2/2/1 3/3/1 4/4/1
f 5/5/1 6/6/1 7/2/1 8/1/1
f 9/7/1 10/8/1 11/9/1 12/10/1
f 13/8/1 14/11/1 15/12/1 16/9/1
f 17/13/1 18/14/1 19/8/1 20/7/1
f 21/14/1 22/15/1 23/11/1 24/8/1
f 25/1/1 26/2/1 27/3/1 28/4/1
f 29/5/1 30/6/1 31/2/1 32/1/1
f 33/1/1 34/2/1 35/3/1 36/4/1
f 37/5/1 38/6/1 39/2/1 40/1/1
f 41/1/1 42/2/1 43/3/1 44/4/1
f 45/5/1 46/6/1 47/2/1 48/1/1
f 49/2/1 50/7/1 51/10/1 52/3/1
f 53/7/1 54/8/1 55/9/1 56/10/1
f 57/8/1 58/11/1 59/12/1 60/9/1
f 61/6/1 62/13/1 63/7/1 64/2/1
f 65/13/1 66/14/1 67/8/1 68/7/1
f 69/14/1 70/15/1 71/11/1 72/8/1

