# Tiled2Unity generated file. Do not modify by hand.
# Wavefront file for 'Free-Market_mesh_0007.obj'

# Vertices (Count = 16)
v -19 -10 0
v -20 -10 0
v -20 -9 0
v -19 -9 0
v -19 -11 0
v -20 -11 0
v -20 -10 0
v -19 -10 0
v -19 -12 0
v -20 -12 0
v -20 -11 0
v -19 -11 0
v -19 -13 0
v -20 -13 0
v -20 -12 0
v -19 -12 0

# Texture cooridinates (Count = 4)
vt 0.4615385 0.875
vt 0.5384616 0.875
vt 0.5384616 1
vt 0.4615385 1

# Normal
vn 0 0 -1

# Mesh description
g Free-Market_mesh_0007

# Faces
f 1/1/1 2/2/1 3/3/1 4/4/1
f 5/1/1 6/2/1 7/3/1 8/4/1
f 9/1/1 10/2/1 11/3/1 12/4/1
f 13/1/1 14/2/1 15/3/1 16/4/1

